<svg width="2000px" height="677px"
 viewBox="0.00 0.00 3304.12 1118.55" xmlns="http://www.w3.org/2000/svg" xmlns:xlink="http://www.w3.org/1999/xlink">
<g id="graph0" class="graph" transform="scale(1.0 1.0) rotate(0) translate(4 1114.55)">
<title>ContextMapGraph</title>
<polygon fill="white" stroke="none" points="-4,4 -4,-1114.55 3300.12,-1114.55 3300.12,4 -4,4"/>
<!-- AffiliateContext -->
<g id="node1" class="node">
<title>AffiliateContext</title>
<polygon fill="none" stroke="black" stroke-width="2" points="468.58,-370.88 462.58,-372.4 456.46,-373.81 450.25,-375.1 443.97,-376.27 437.64,-377.31 431.29,-378.21 424.94,-378.98 418.61,-379.6 412.33,-380.08 406.12,-380.41 399.99,-380.59 393.97,-380.61 388.07,-380.49 382.31,-380.21 376.71,-379.79 371.28,-379.21 366.04,-378.49 361,-377.62 356.16,-376.61 351.53,-375.47 347.14,-374.19 342.97,-372.78 339.04,-371.25 335.35,-369.61 331.91,-367.85 328.71,-366 325.76,-364.05 323.06,-362.01 320.61,-359.89 318.41,-357.7 316.45,-355.45 314.73,-353.15 313.25,-350.79 312.01,-348.41 311,-345.99 310.23,-343.55 309.67,-341.11 309.34,-338.66 309.23,-336.21 309.34,-333.78 309.65,-331.37 310.18,-328.98 310.9,-326.64 311.83,-324.33 312.96,-322.07 314.29,-319.87 315.81,-317.72 317.53,-315.64 319.44,-313.63 321.54,-311.69 323.82,-309.83 326.3,-308.05 328.97,-306.36 331.82,-304.75 334.86,-303.24 338.08,-301.81 341.48,-300.47 345.07,-299.24 348.84,-298.09 352.78,-297.04 356.9,-296.09 361.19,-295.23 365.65,-294.48 370.27,-293.81 375.04,-293.25 379.97,-292.78 385.03,-292.4 390.23,-292.12 395.55,-291.94 400.98,-291.85 406.52,-291.85 412.14,-291.94 417.83,-292.13 423.59,-292.4 429.39,-292.77 435.22,-293.22 441.06,-293.76 446.88,-294.39 452.68,-295.11 458.44,-295.91 464.12,-296.8 469.71,-297.78 475.2,-298.83 480.55,-299.97 485.75,-301.19 490.77,-302.49 495.6,-303.87 500.21,-305.33 504.58,-306.86 508.7,-308.47 512.54,-310.15 516.08,-311.9 519.32,-313.72 522.22,-315.6 524.78,-317.55 526.99,-319.55 528.83,-321.61 530.28,-323.71 531.36,-325.87 532.03,-328.06 532.31,-330.29 532.19,-332.56 531.66,-334.84 530.73,-337.15 529.4,-339.47 527.67,-341.8 525.56,-344.12 523.06,-346.44 520.19,-348.74 516.96,-351.02 513.39,-353.27 509.48,-355.48 505.27,-357.65 500.75,-359.76 495.96,-361.81 490.91,-363.8 485.62,-365.7 480.12,-367.52 474.43,-369.25 468.58,-370.88"/>
<text text-anchor="middle" x="412.12" y="-329.72" font-family="sans-serif" font-size="16.00">AffiliateContext</text>
</g>
<!-- CustomerContext -->
<g id="node2" class="node">
<title>CustomerContext</title>
<polygon fill="none" stroke="black" stroke-width="2" points="365.47,-225.32 358.9,-226.89 352.19,-228.34 345.37,-229.68 338.46,-230.9 331.5,-231.98 324.51,-232.93 317.51,-233.75 310.52,-234.41 303.59,-234.94 296.72,-235.31 289.93,-235.53 283.26,-235.6 276.72,-235.52 270.33,-235.29 264.11,-234.9 258.06,-234.36 252.22,-233.67 246.58,-232.84 241.17,-231.86 236,-230.74 231.06,-229.49 226.38,-228.11 221.95,-226.61 217.78,-224.99 213.88,-223.25 210.25,-221.41 206.89,-219.48 203.8,-217.45 200.98,-215.35 198.44,-213.17 196.16,-210.93 194.14,-208.63 192.39,-206.28 190.9,-203.9 189.67,-201.48 188.69,-199.05 187.96,-196.6 187.48,-194.14 187.24,-191.69 187.24,-189.25 187.47,-186.83 187.94,-184.44 188.63,-182.08 189.55,-179.76 190.7,-177.49 192.06,-175.27 193.64,-173.11 195.45,-171.01 197.46,-168.98 199.7,-167.03 202.14,-165.15 204.8,-163.35 207.67,-161.63 210.76,-160 214.05,-158.46 217.55,-157 221.26,-155.64 225.18,-154.37 229.3,-153.2 233.62,-152.12 238.14,-151.14 242.85,-150.25 247.75,-149.46 252.84,-148.76 258.1,-148.16 263.54,-147.66 269.13,-147.24 274.88,-146.93 280.76,-146.7 286.78,-146.57 292.91,-146.54 299.15,-146.59 305.47,-146.74 311.86,-146.97 318.3,-147.3 324.78,-147.71 331.28,-148.21 337.76,-148.8 344.23,-149.48 350.64,-150.25 356.98,-151.1 363.22,-152.03 369.35,-153.05 375.34,-154.16 381.16,-155.34 386.79,-156.61 392.2,-157.96 397.38,-159.39 402.3,-160.9 406.94,-162.48 411.27,-164.14 415.28,-165.87 418.95,-167.67 422.26,-169.53 425.19,-171.46 427.73,-173.46 429.87,-175.5 431.59,-177.61 432.88,-179.76 433.73,-181.95 434.15,-184.19 434.12,-186.46 433.65,-188.75 432.73,-191.07 431.36,-193.41 429.56,-195.75 427.33,-198.09 424.67,-200.44 421.6,-202.76 418.14,-205.07 414.28,-207.35 410.06,-209.6 405.49,-211.8 400.59,-213.95 395.38,-216.04 389.88,-218.06 384.11,-220.01 378.11,-221.87 371.88,-223.64 365.47,-225.32"/>
<text text-anchor="middle" x="301.12" y="-184.47" font-family="sans-serif" font-size="16.00">CustomerContext</text>
</g>
<!-- AffiliateContext&#45;&gt;CustomerContext -->
<g id="edge1" class="edge">
<title>AffiliateContext&#45;&gt;CustomerContext</title>
<path fill="none" stroke="black" stroke-width="2" d="M380.9,-292.24C366.35,-273.45 349.01,-251.09 334.23,-232"/>
<text text-anchor="middle" x="420.62" y="-257.09" font-family="sans-serif" font-size="12.00"> &#160;&#160;&#160;&#160;&#160;&#160;&#160;&#160;&#160;&#160;&#160;&#160;&#160;&#160;&#160;&#160;&#160;&#160;&#160;&#160;&#160;&#160;&#160;&#160;&#160;&#160;&#160;&#160;&#160;&#160;&#160;&#160;&#160;&#160;&#160;&#160;&#160;&#160;&#160;</text>
<polygon fill="white" stroke="none" points="327.23,-223 327.23,-240 341.23,-240 341.23,-223 327.23,-223"/>
<text text-anchor="start" x="329.23" y="-228.4" font-family="sans-serif" font-size="12.00">D</text>
<polygon fill="white" stroke="none" points="373.9,-283.24 373.9,-300.24 387.9,-300.24 387.9,-283.24 373.9,-283.24"/>
<text text-anchor="start" x="375.9" y="-288.64" font-family="sans-serif" font-size="12.00">U</text>
</g>
<!-- App5DeContext -->
<g id="node3" class="node">
<title>App5DeContext</title>
<polygon fill="none" stroke="black" stroke-width="2" points="712.2,-145.39 719.31,-144.73 726.44,-144.2 733.57,-143.79 740.66,-143.51 747.68,-143.36 754.62,-143.34 761.44,-143.45 768.12,-143.69 774.64,-144.07 780.96,-144.58 787.08,-145.21 792.97,-145.98 798.61,-146.87 803.99,-147.89 809.09,-149.04 813.9,-150.3 818.4,-151.67 822.59,-153.16 826.47,-154.76 830.02,-156.45 833.24,-158.25 836.13,-160.13 838.68,-162.1 840.91,-164.14 842.8,-166.26 844.37,-168.44 845.62,-170.68 846.55,-172.97 847.18,-175.31 847.51,-177.67 847.54,-180.07 847.3,-182.48 846.78,-184.91 846,-187.34 844.97,-189.76 843.7,-192.18 842.2,-194.57 840.49,-196.94 838.56,-199.27 836.44,-201.57 834.12,-203.82 831.63,-206.01 828.97,-208.14 826.14,-210.21 823.16,-212.2 820.04,-214.12 816.77,-215.95 813.37,-217.7 809.84,-219.36 806.18,-220.92 802.41,-222.38 798.51,-223.74 794.51,-225 790.39,-226.15 786.17,-227.19 781.85,-228.12 777.42,-228.94 772.89,-229.64 768.27,-230.23 763.56,-230.71 758.75,-231.07 753.86,-231.31 748.89,-231.45 743.84,-231.47 738.72,-231.37 733.54,-231.17 728.29,-230.86 723,-230.44 717.66,-229.92 712.29,-229.29 706.9,-228.56 701.51,-227.73 696.11,-226.8 690.73,-225.78 685.39,-224.67 680.09,-223.47 674.85,-222.19 669.7,-220.82 664.65,-219.38 659.72,-217.86 654.92,-216.27 650.28,-214.61 645.82,-212.88 641.55,-211.1 637.5,-209.25 633.69,-207.36 630.14,-205.41 626.86,-203.42 623.88,-201.39 621.21,-199.32 618.86,-197.22 616.87,-195.09 615.23,-192.94 613.97,-190.77 613.09,-188.59 612.61,-186.4 612.53,-184.21 612.86,-182.02 613.61,-179.83 614.77,-177.66 616.36,-175.51 618.36,-173.38 620.78,-171.27 623.6,-169.21 626.83,-167.18 630.45,-165.2 634.44,-163.27 638.8,-161.4 643.51,-159.6 648.55,-157.86 653.91,-156.19 659.55,-154.61 665.46,-153.11 671.62,-151.7 677.99,-150.38 684.56,-149.17 691.29,-148.06 698.16,-147.05 705.14,-146.16 712.2,-145.39"/>
<text text-anchor="middle" x="736.12" y="-184.47" font-family="sans-serif" font-size="16.00">App5DeContext</text>
</g>
<!-- SellerContext -->
<g id="node4" class="node">
<title>SellerContext</title>
<polygon fill="none" stroke="black" stroke-width="2" points="145.91,-87.05 139.82,-88.09 133.67,-89.01 127.48,-89.8 121.29,-90.46 115.11,-91 108.97,-91.4 102.89,-91.66 96.89,-91.79 91,-91.77 85.23,-91.62 79.61,-91.32 74.15,-90.88 68.87,-90.31 63.78,-89.59 58.9,-88.74 54.24,-87.75 49.81,-86.64 45.62,-85.39 41.68,-84.03 38,-82.54 34.58,-80.94 31.42,-79.24 28.53,-77.43 25.91,-75.53 23.56,-73.54 21.48,-71.46 19.66,-69.31 18.11,-67.1 16.81,-64.83 15.77,-62.5 14.98,-60.13 14.43,-57.73 14.12,-55.3 14.04,-52.86 14.18,-50.4 14.54,-47.94 15.11,-45.49 15.88,-43.05 16.85,-40.64 18,-38.25 19.34,-35.9 20.86,-33.6 22.54,-31.34 24.39,-29.14 26.39,-27.01 28.56,-24.94 30.87,-22.94 33.33,-21.03 35.93,-19.2 38.68,-17.45 41.56,-15.8 44.58,-14.24 47.73,-12.78 51.01,-11.41 54.42,-10.15 57.96,-9 61.62,-7.95 65.41,-7 69.32,-6.17 73.35,-5.44 77.49,-4.82 81.74,-4.31 86.11,-3.91 90.57,-3.61 95.14,-3.42 99.8,-3.34 104.55,-3.36 109.37,-3.49 114.27,-3.72 119.22,-4.04 124.23,-4.47 129.28,-5 134.35,-5.62 139.44,-6.33 144.53,-7.14 149.6,-8.04 154.65,-9.02 159.65,-10.09 164.58,-11.25 169.44,-12.48 174.19,-13.79 178.83,-15.18 183.33,-16.64 187.68,-18.18 191.85,-19.78 195.83,-21.45 199.59,-23.18 203.13,-24.97 206.42,-26.82 209.44,-28.72 212.18,-30.67 214.62,-32.67 216.76,-34.7 218.56,-36.78 220.03,-38.89 221.16,-41.03 221.92,-43.2 222.32,-45.39 222.35,-47.59 222.01,-49.8 221.29,-52.02 220.19,-54.24 218.71,-56.45 216.86,-58.65 214.65,-60.83 212.07,-62.98 209.14,-65.11 205.87,-67.2 202.27,-69.24 198.35,-71.24 194.14,-73.18 189.64,-75.06 184.88,-76.86 179.87,-78.59 174.64,-80.24 169.2,-81.8 163.59,-83.27 157.82,-84.64 151.92,-85.9 145.91,-87.05"/>
<text text-anchor="middle" x="111.12" y="-42.13" font-family="sans-serif" font-size="16.00">SellerContext</text>
</g>
<!-- App5DeContext&#45;&gt;SellerContext -->
<g id="edge2" class="edge">
<title>App5DeContext&#45;&gt;SellerContext</title>
<path fill="none" stroke="black" stroke-width="2" d="M632.21,-163.94C513.24,-137.22 320.03,-93.84 205.29,-68.08"/>
<text text-anchor="middle" x="503.62" y="-113.26" font-family="sans-serif" font-size="12.00"> &#160;&#160;&#160;&#160;&#160;&#160;&#160;&#160;&#160;&#160;&#160;&#160;&#160;&#160;&#160;&#160;&#160;&#160;&#160;&#160;&#160;&#160;&#160;&#160;&#160;&#160;&#160;&#160;&#160;&#160;&#160;&#160;&#160;&#160;&#160;&#160;&#160;&#160;&#160;</text>
<polygon fill="white" stroke="none" points="198.29,-59.08 198.29,-76.08 212.29,-76.08 212.29,-59.08 198.29,-59.08"/>
<text text-anchor="start" x="200.29" y="-64.48" font-family="sans-serif" font-size="12.00">D</text>
<polygon fill="white" stroke="none" points="608.21,-153.94 608.21,-172.94 624.21,-172.94 624.21,-153.94 608.21,-153.94"/>
<polyline fill="none" stroke="black" points="624.21,-153.94 624.21,-172.94"/>
<text text-anchor="start" x="611.21" y="-160.34" font-family="sans-serif" font-size="12.00">U</text>
<polygon fill="white" stroke="none" points="624.21,-153.94 624.21,-172.94 657.21,-172.94 657.21,-153.94 624.21,-153.94"/>
<polygon fill="none" stroke="black" points="624.21,-153.94 624.21,-172.94 657.21,-172.94 657.21,-153.94 624.21,-153.94"/>
<text text-anchor="start" x="627.21" y="-160.34" font-family="sans-serif" font-size="12.00">OHS</text>
</g>
<!-- AuthenContext -->
<g id="node5" class="node">
<title>AuthenContext</title>
<polygon fill="none" stroke="black" stroke-width="2" points="702.98,-523.57 696.04,-523.93 689.1,-524.16 682.2,-524.27 675.36,-524.26 668.62,-524.12 662,-523.86 655.52,-523.47 649.22,-522.96 643.1,-522.32 637.19,-521.56 631.52,-520.67 626.1,-519.67 620.95,-518.55 616.08,-517.32 611.51,-515.98 607.24,-514.53 603.3,-512.98 599.68,-511.33 596.39,-509.59 593.44,-507.76 590.83,-505.85 588.55,-503.86 586.62,-501.8 585.02,-499.68 583.75,-497.5 582.81,-495.27 582.19,-493 581.89,-490.69 581.88,-488.35 582.18,-485.98 582.75,-483.61 583.6,-481.22 584.71,-478.83 586.08,-476.45 587.68,-474.09 589.5,-471.75 591.54,-469.43 593.79,-467.15 596.22,-464.91 598.83,-462.72 601.61,-460.59 604.55,-458.51 607.63,-456.5 610.85,-454.57 614.2,-452.71 617.67,-450.94 621.26,-449.25 624.95,-447.66 628.74,-446.16 632.63,-444.76 636.6,-443.46 640.66,-442.27 644.8,-441.18 649.02,-440.21 653.31,-439.35 657.67,-438.61 662.1,-437.98 666.6,-437.46 671.16,-437.07 675.78,-436.79 680.45,-436.63 685.18,-436.58 689.95,-436.66 694.77,-436.84 699.63,-437.14 704.53,-437.56 709.45,-438.08 714.39,-438.71 719.35,-439.45 724.31,-440.3 729.26,-441.24 734.2,-442.29 739.11,-443.43 743.98,-444.66 748.79,-445.98 753.54,-447.39 758.2,-448.88 762.77,-450.44 767.22,-452.08 771.54,-453.79 775.7,-455.57 779.7,-457.41 783.52,-459.3 787.13,-461.25 790.52,-463.24 793.67,-465.28 796.57,-467.36 799.19,-469.47 801.51,-471.61 803.53,-473.77 805.23,-475.95 806.59,-478.14 807.6,-480.34 808.25,-482.55 808.53,-484.75 808.44,-486.94 807.95,-489.12 807.07,-491.29 805.8,-493.42 804.14,-495.53 802.08,-497.6 799.62,-499.64 796.78,-501.62 793.56,-503.56 789.97,-505.44 786.01,-507.25 781.71,-509 777.07,-510.68 772.12,-512.28 766.87,-513.8 761.34,-515.23 755.55,-516.57 749.53,-517.82 743.3,-518.97 736.88,-520.01 730.31,-520.95 723.61,-521.77 716.8,-522.49 709.91,-523.09 702.98,-523.57"/>
<text text-anchor="middle" x="691.12" y="-476.23" font-family="sans-serif" font-size="16.00">AuthenContext</text>
</g>
<!-- AuthenContext&#45;&gt;AffiliateContext -->
<g id="edge3" class="edge">
<title>AuthenContext&#45;&gt;AffiliateContext</title>
<path fill="none" stroke="black" stroke-width="2" d="M624.62,-447.39C602.96,-436.84 578.89,-424.84 557.12,-413.36 546.73,-407.88 544.4,-406.04 534.12,-400.36 515.47,-390.06 495.14,-379.02 476.51,-368.97"/>
<text text-anchor="middle" x="617.62" y="-403.76" font-family="sans-serif" font-size="12.00"> &#160;&#160;&#160;&#160;&#160;&#160;&#160;&#160;&#160;&#160;&#160;&#160;&#160;&#160;&#160;&#160;&#160;&#160;&#160;&#160;&#160;&#160;&#160;&#160;&#160;&#160;&#160;&#160;&#160;&#160;&#160;&#160;&#160;&#160;&#160;&#160;&#160;&#160;&#160;</text>
<polygon fill="white" stroke="none" points="469.51,-359.97 469.51,-376.97 483.51,-376.97 483.51,-359.97 469.51,-359.97"/>
<text text-anchor="start" x="471.51" y="-365.37" font-family="sans-serif" font-size="12.00">D</text>
<polygon fill="white" stroke="none" points="617.62,-438.39 617.62,-455.39 631.62,-455.39 631.62,-438.39 617.62,-438.39"/>
<text text-anchor="start" x="619.62" y="-443.79" font-family="sans-serif" font-size="12.00">U</text>
</g>
<!-- AuthenContext&#45;&gt;App5DeContext -->
<g id="edge4" class="edge">
<title>AuthenContext&#45;&gt;App5DeContext</title>
<path fill="none" stroke="black" stroke-width="2" d="M689.67,-436.49C689.17,-396.8 690.6,-336.16 701.12,-284.69 704.86,-266.36 711.5,-246.86 718.01,-230.28"/>
<text text-anchor="middle" x="761.62" y="-330.42" font-family="sans-serif" font-size="12.00"> &#160;&#160;&#160;&#160;&#160;&#160;&#160;&#160;&#160;&#160;&#160;&#160;&#160;&#160;&#160;&#160;&#160;&#160;&#160;&#160;&#160;&#160;&#160;&#160;&#160;&#160;&#160;&#160;&#160;&#160;&#160;&#160;&#160;&#160;&#160;&#160;&#160;&#160;&#160;</text>
<polygon fill="white" stroke="none" points="711.01,-221.28 711.01,-238.28 725.01,-238.28 725.01,-221.28 711.01,-221.28"/>
<text text-anchor="start" x="713.01" y="-226.68" font-family="sans-serif" font-size="12.00">D</text>
<polygon fill="white" stroke="none" points="682.67,-427.49 682.67,-444.49 696.67,-444.49 696.67,-427.49 682.67,-427.49"/>
<text text-anchor="start" x="684.67" y="-432.89" font-family="sans-serif" font-size="12.00">U</text>
</g>
<!-- BinderManagementContext -->
<g id="node6" class="node">
<title>BinderManagementContext</title>
<polygon fill="none" stroke="black" stroke-width="2" points="1389.07,-654.17 1381.72,-652.01 1374.78,-649.78 1368.28,-647.5 1362.23,-645.17 1356.68,-642.8 1351.63,-640.4 1347.12,-637.98 1343.17,-635.55 1339.78,-633.11 1336.99,-630.68 1334.79,-628.25 1333.2,-625.85 1332.22,-623.47 1331.87,-621.12 1332.13,-618.82 1333.02,-616.55 1334.51,-614.34 1336.61,-612.19 1339.31,-610.09 1342.59,-608.06 1346.44,-606.1 1350.83,-604.22 1355.75,-602.4 1361.18,-600.67 1367.09,-599.02 1373.46,-597.45 1380.25,-595.96 1387.44,-594.56 1395,-593.25 1402.89,-592.02 1411.08,-590.88 1419.54,-589.83 1428.24,-588.87 1437.14,-588 1446.2,-587.22 1455.4,-586.52 1464.69,-585.92 1474.05,-585.4 1483.45,-584.97 1492.85,-584.63 1502.22,-584.38 1511.53,-584.21 1520.76,-584.14 1529.87,-584.15 1538.86,-584.24 1547.68,-584.43 1556.32,-584.7 1564.75,-585.06 1572.97,-585.51 1580.95,-586.04 1588.68,-586.66 1596.14,-587.38 1603.33,-588.18 1610.22,-589.06 1616.82,-590.04 1623.11,-591.11 1629.09,-592.26 1634.75,-593.5 1640.08,-594.83 1645.1,-596.24 1649.78,-597.74 1654.13,-599.32 1658.15,-600.98 1661.84,-602.73 1665.19,-604.55 1668.22,-606.44 1670.9,-608.41 1673.26,-610.45 1675.28,-612.54 1676.97,-614.7 1678.33,-616.92 1679.35,-619.18 1680.04,-621.49 1680.4,-623.84 1680.42,-626.21 1680.1,-628.62 1679.45,-631.04 1678.45,-633.47 1677.12,-635.9 1675.44,-638.33 1673.41,-640.74 1671.04,-643.13 1668.32,-645.49 1665.25,-647.81 1661.82,-650.08 1658.04,-652.3 1653.91,-654.44 1649.43,-656.52 1644.6,-658.51 1639.41,-660.41 1633.88,-662.21 1628.01,-663.9 1621.8,-665.48 1615.26,-666.94 1608.4,-668.27 1601.23,-669.47 1593.75,-670.52 1585.99,-671.44 1577.96,-672.21 1569.67,-672.82 1561.14,-673.28 1552.39,-673.59 1543.45,-673.74 1534.33,-673.73 1525.06,-673.56 1515.68,-673.24 1506.19,-672.75 1496.65,-672.12 1487.07,-671.33 1477.49,-670.4 1467.94,-669.33 1458.45,-668.11 1449.07,-666.76 1439.82,-665.29 1430.73,-663.69 1421.85,-661.99 1413.21,-660.17 1404.85,-658.26 1396.79,-656.25 1389.07,-654.17"/>
<text text-anchor="middle" x="1519.12" y="-621.91" font-family="sans-serif" font-size="16.00">BinderManagementContext</text>
</g>
<!-- PolicyManagementContext -->
<g id="node7" class="node">
<title>PolicyManagementContext</title>
<polygon fill="none" stroke="black" stroke-width="2" points="2513.4,-472.9 2515.36,-475.72 2516.83,-478.54 2517.84,-481.35 2518.35,-484.14 2518.38,-486.9 2517.91,-489.62 2516.95,-492.28 2515.49,-494.89 2513.54,-497.42 2511.1,-499.87 2508.17,-502.23 2504.77,-504.5 2500.89,-506.66 2496.56,-508.71 2491.78,-510.65 2486.57,-512.47 2480.93,-514.16 2474.9,-515.72 2468.48,-517.16 2461.7,-518.46 2454.57,-519.62 2447.12,-520.66 2439.37,-521.55 2431.35,-522.32 2423.08,-522.95 2414.59,-523.45 2405.91,-523.82 2397.06,-524.07 2388.06,-524.19 2378.96,-524.2 2369.78,-524.09 2360.55,-523.86 2351.29,-523.53 2342.04,-523.1 2332.82,-522.57 2323.66,-521.95 2314.6,-521.24 2305.65,-520.44 2296.86,-519.57 2288.23,-518.61 2279.8,-517.59 2271.59,-516.5 2263.62,-515.35 2255.92,-514.13 2248.51,-512.86 2241.41,-511.54 2234.63,-510.16 2228.2,-508.74 2222.13,-507.27 2216.43,-505.76 2211.12,-504.2 2206.21,-502.61 2201.7,-500.97 2197.62,-499.3 2193.97,-497.59 2190.75,-495.85 2187.96,-494.08 2185.62,-492.27 2183.73,-490.43 2182.28,-488.55 2181.27,-486.65 2180.71,-484.73 2180.59,-482.77 2180.92,-480.8 2181.67,-478.79 2182.86,-476.77 2184.47,-474.74 2186.49,-472.69 2188.93,-470.62 2191.76,-468.56 2194.99,-466.48 2198.59,-464.41 2202.57,-462.35 2206.9,-460.3 2211.58,-458.26 2216.59,-456.25 2221.93,-454.27 2227.57,-452.32 2233.5,-450.42 2239.72,-448.57 2246.2,-446.77 2252.93,-445.04 2259.89,-443.38 2267.08,-441.81 2274.46,-440.32 2282.03,-438.92 2289.77,-437.63 2297.66,-436.45 2305.69,-435.39 2313.83,-434.45 2322.06,-433.65 2330.38,-432.98 2338.75,-432.45 2347.17,-432.07 2355.6,-431.84 2364.04,-431.76 2372.45,-431.85 2380.83,-432.09 2389.15,-432.5 2397.38,-433.07 2405.51,-433.8 2413.52,-434.7 2421.39,-435.75 2429.08,-436.97 2436.6,-438.34 2443.9,-439.85 2450.98,-441.52 2457.8,-443.33 2464.36,-445.26 2470.63,-447.33 2476.58,-449.51 2482.21,-451.8 2487.5,-454.2 2492.42,-456.68 2496.96,-459.25 2501.1,-461.88 2504.83,-464.58 2508.13,-467.32 2510.99,-470.1 2513.4,-472.9"/>
<text text-anchor="middle" x="2347.12" y="-476.23" font-family="sans-serif" font-size="16.00">PolicyManagementContext</text>
</g>
<!-- BinderManagementContext&#45;&gt;PolicyManagementContext -->
<g id="edge5" class="edge">
<title>BinderManagementContext&#45;&gt;PolicyManagementContext</title>
<path fill="none" stroke="black" stroke-width="2" d="M1623.16,-590.72C1673.69,-575.31 1735.57,-558.04 1792.12,-546.69 1923.51,-520.32 2074.69,-503.29 2186.05,-493.2"/>
<text text-anchor="middle" x="1823.12" y="-550.09" font-family="sans-serif" font-size="12.00">Partnership</text>
</g>
<!-- SalesWebAppContext -->
<g id="node10" class="node">
<title>SalesWebAppContext</title>
<polygon fill="none" stroke="black" stroke-width="2" points="844.41,-347.31 841.34,-344.61 838.66,-341.89 836.39,-339.16 834.53,-336.42 833.1,-333.7 832.1,-331 831.55,-328.33 831.44,-325.7 831.79,-323.13 832.58,-320.61 833.83,-318.16 835.52,-315.78 837.67,-313.49 840.25,-311.29 843.27,-309.19 846.71,-307.18 850.56,-305.28 854.82,-303.49 859.47,-301.82 864.49,-300.26 869.87,-298.82 875.58,-297.5 881.62,-296.29 887.95,-295.21 894.55,-294.26 901.41,-293.42 908.5,-292.7 915.79,-292.09 923.26,-291.61 930.89,-291.23 938.64,-290.97 946.49,-290.81 954.42,-290.76 962.39,-290.81 970.39,-290.96 978.37,-291.2 986.33,-291.54 994.23,-291.96 1002.06,-292.47 1009.77,-293.05 1017.36,-293.72 1024.79,-294.46 1032.06,-295.28 1039.13,-296.16 1045.99,-297.12 1052.61,-298.13 1058.99,-299.22 1065.11,-300.36 1070.95,-301.56 1076.5,-302.82 1081.74,-304.14 1086.67,-305.52 1091.28,-306.95 1095.55,-308.43 1099.48,-309.96 1103.07,-311.55 1106.31,-313.19 1109.2,-314.88 1111.72,-316.62 1113.9,-318.41 1115.71,-320.24 1117.16,-322.12 1118.26,-324.05 1119,-326.01 1119.38,-328.02 1119.42,-330.06 1119.11,-332.13 1118.46,-334.24 1117.47,-336.37 1116.15,-338.53 1114.51,-340.71 1112.54,-342.9 1110.27,-345.09 1107.68,-347.3 1104.8,-349.49 1101.63,-351.68 1098.17,-353.86 1094.43,-356.01 1090.43,-358.12 1086.17,-360.2 1081.65,-362.24 1076.9,-364.22 1071.91,-366.14 1066.69,-367.99 1061.26,-369.76 1055.63,-371.44 1049.81,-373.03 1043.8,-374.51 1037.61,-375.88 1031.27,-377.14 1024.78,-378.27 1018.16,-379.27 1011.41,-380.13 1004.55,-380.85 997.6,-381.42 990.57,-381.84 983.47,-382.1 976.33,-382.2 969.15,-382.13 961.96,-381.9 954.78,-381.51 947.61,-380.95 940.48,-380.23 933.41,-379.35 926.41,-378.3 919.52,-377.1 912.74,-375.74 906.1,-374.24 899.62,-372.59 893.31,-370.81 887.2,-368.9 881.32,-366.86 875.67,-364.72 870.28,-362.47 865.16,-360.12 860.35,-357.69 855.85,-355.18 851.68,-352.61 847.86,-349.98 844.41,-347.31"/>
<text text-anchor="middle" x="980.12" y="-329.72" font-family="sans-serif" font-size="16.00">SalesWebAppContext</text>
</g>
<!-- BinderManagementContext&#45;&gt;SalesWebAppContext -->
<g id="edge6" class="edge">
<title>BinderManagementContext&#45;&gt;SalesWebAppContext</title>
<path fill="none" stroke="black" stroke-width="2" d="M1395.71,-592.72C1323.37,-572.81 1239.93,-547.51 1207.12,-528.69 1151.63,-496.88 1149.67,-473 1101.12,-431.36 1079.77,-413.06 1055.69,-393.56 1034.67,-376.9"/>
<text text-anchor="middle" x="1267.62" y="-476.93" font-family="sans-serif" font-size="12.00"> &#160;&#160;&#160;&#160;&#160;&#160;&#160;&#160;&#160;&#160;&#160;&#160;&#160;&#160;&#160;&#160;&#160;&#160;&#160;&#160;&#160;&#160;&#160;&#160;&#160;&#160;&#160;&#160;&#160;&#160;&#160;&#160;&#160;&#160;&#160;&#160;&#160;&#160;&#160;</text>
<polygon fill="white" stroke="none" points="1027.67,-367.9 1027.67,-384.9 1041.67,-384.9 1041.67,-367.9 1027.67,-367.9"/>
<text text-anchor="start" x="1029.67" y="-373.3" font-family="sans-serif" font-size="12.00">D</text>
<polygon fill="white" stroke="none" points="1371.71,-582.72 1371.71,-601.72 1387.71,-601.72 1387.71,-582.72 1371.71,-582.72"/>
<polyline fill="none" stroke="black" points="1387.71,-582.72 1387.71,-601.72"/>
<text text-anchor="start" x="1374.71" y="-589.12" font-family="sans-serif" font-size="12.00">U</text>
<polygon fill="white" stroke="none" points="1387.71,-582.72 1387.71,-601.72 1420.71,-601.72 1420.71,-582.72 1387.71,-582.72"/>
<polygon fill="none" stroke="black" points="1387.71,-582.72 1387.71,-601.72 1420.71,-601.72 1420.71,-582.72 1387.71,-582.72"/>
<text text-anchor="start" x="1390.71" y="-589.12" font-family="sans-serif" font-size="12.00">OHS</text>
</g>
<!-- QuoteManagementContext -->
<g id="node11" class="node">
<title>QuoteManagementContext</title>
<polygon fill="none" stroke="black" stroke-width="2" points="1643.56,-509.89 1636.2,-512.04 1628.53,-514.09 1620.6,-516.04 1612.43,-517.87 1604.05,-519.59 1595.49,-521.17 1586.79,-522.63 1577.97,-523.94 1569.07,-525.1 1560.1,-526.12 1551.11,-526.98 1542.11,-527.68 1533.14,-528.22 1524.22,-528.6 1515.37,-528.81 1506.62,-528.86 1497.99,-528.75 1489.51,-528.47 1481.18,-528.04 1473.03,-527.44 1465.07,-526.7 1457.33,-525.8 1449.81,-524.76 1442.53,-523.58 1435.5,-522.27 1428.73,-520.83 1422.23,-519.27 1416.01,-517.6 1410.08,-515.82 1404.44,-513.95 1399.1,-511.98 1394.07,-509.94 1389.35,-507.83 1384.94,-505.66 1380.86,-503.43 1377.09,-501.15 1373.66,-498.85 1370.55,-496.51 1367.78,-494.15 1365.34,-491.78 1363.24,-489.41 1361.49,-487.05 1360.07,-484.69 1359.01,-482.35 1358.29,-480.04 1357.93,-477.75 1357.93,-475.5 1358.28,-473.29 1359,-471.13 1360.08,-469.02 1361.53,-466.96 1363.34,-464.96 1365.53,-463.02 1368.09,-461.15 1371.03,-459.34 1374.34,-457.59 1378.02,-455.92 1382.07,-454.32 1386.5,-452.79 1391.3,-451.33 1396.45,-449.95 1401.97,-448.64 1407.84,-447.4 1414.06,-446.24 1420.61,-445.16 1427.49,-444.15 1434.68,-443.22 1442.17,-442.37 1449.95,-441.6 1458,-440.9 1466.29,-440.28 1474.82,-439.74 1483.55,-439.28 1492.48,-438.9 1501.56,-438.61 1510.78,-438.4 1520.1,-438.27 1529.51,-438.23 1538.97,-438.27 1548.45,-438.4 1557.91,-438.63 1567.33,-438.94 1576.68,-439.35 1585.91,-439.86 1595.01,-440.46 1603.92,-441.16 1612.63,-441.95 1621.1,-442.85 1629.29,-443.84 1637.17,-444.94 1644.72,-446.14 1651.9,-447.44 1658.68,-448.84 1665.04,-450.34 1670.95,-451.93 1676.39,-453.63 1681.34,-455.41 1685.77,-457.29 1689.67,-459.26 1693.03,-461.31 1695.82,-463.44 1698.05,-465.64 1699.7,-467.92 1700.76,-470.26 1701.24,-472.65 1701.13,-475.1 1700.44,-477.59 1699.17,-480.11 1697.32,-482.67 1694.92,-485.24 1691.96,-487.82 1688.46,-490.4 1684.45,-492.97 1679.93,-495.52 1674.94,-498.04 1669.48,-500.53 1663.59,-502.97 1657.29,-505.35 1650.6,-507.66 1643.56,-509.89"/>
<text text-anchor="middle" x="1519.12" y="-476.23" font-family="sans-serif" font-size="16.00">QuoteManagementContext</text>
</g>
<!-- BinderManagementContext&#45;&gt;QuoteManagementContext -->
<g id="edge7" class="edge">
<title>BinderManagementContext&#45;&gt;QuoteManagementContext</title>
<path fill="none" stroke="black" stroke-width="2" d="M1519.12,-583.92C1519.12,-566.83 1519.12,-546.83 1519.12,-529.04"/>
<text text-anchor="middle" x="1579.62" y="-550.09" font-family="sans-serif" font-size="12.00"> &#160;&#160;&#160;&#160;&#160;&#160;&#160;&#160;&#160;&#160;&#160;&#160;&#160;&#160;&#160;&#160;&#160;&#160;&#160;&#160;&#160;&#160;&#160;&#160;&#160;&#160;&#160;&#160;&#160;&#160;&#160;&#160;&#160;&#160;&#160;&#160;&#160;&#160;&#160;</text>
<polygon fill="white" stroke="none" points="1512.12,-520.04 1512.12,-537.04 1526.12,-537.04 1526.12,-520.04 1512.12,-520.04"/>
<text text-anchor="start" x="1514.12" y="-525.44" font-family="sans-serif" font-size="12.00">D</text>
<polygon fill="white" stroke="none" points="1484.12,-573.92 1484.12,-592.92 1500.12,-592.92 1500.12,-573.92 1484.12,-573.92"/>
<polyline fill="none" stroke="black" points="1500.12,-573.92 1500.12,-592.92"/>
<text text-anchor="start" x="1487.12" y="-580.32" font-family="sans-serif" font-size="12.00">U</text>
<polygon fill="white" stroke="none" points="1500.12,-573.92 1500.12,-592.92 1554.12,-592.92 1554.12,-573.92 1500.12,-573.92"/>
<polygon fill="none" stroke="black" points="1500.12,-573.92 1500.12,-592.92 1554.12,-592.92 1554.12,-573.92 1500.12,-573.92"/>
<text text-anchor="start" x="1503.12" y="-580.32" font-family="sans-serif" font-size="12.00">OHS, PL</text>
</g>
<!-- ClaimContext -->
<g id="node8" class="node">
<title>ClaimContext</title>
<polygon fill="none" stroke="black" stroke-width="2" points="2775.52,-299.35 2780.68,-301.1 2785.64,-302.94 2790.37,-304.85 2794.85,-306.83 2799.08,-308.87 2803.02,-310.97 2806.66,-313.12 2809.99,-315.3 2812.99,-317.52 2815.65,-319.76 2817.97,-322.02 2819.93,-324.29 2821.52,-326.57 2822.74,-328.84 2823.59,-331.11 2824.06,-333.37 2824.16,-335.6 2823.89,-337.81 2823.25,-339.99 2822.24,-342.13 2820.88,-344.24 2819.18,-346.3 2817.13,-348.31 2814.76,-350.27 2812.08,-352.17 2809.11,-354.02 2805.85,-355.8 2802.32,-357.52 2798.55,-359.18 2794.54,-360.76 2790.33,-362.28 2785.92,-363.71 2781.34,-365.08 2776.6,-366.37 2771.73,-367.57 2766.75,-368.7 2761.67,-369.75 2756.51,-370.71 2751.3,-371.59 2746.04,-372.38 2740.76,-373.09 2735.48,-373.71 2730.21,-374.23 2724.97,-374.67 2719.76,-375.01 2714.61,-375.27 2709.53,-375.42 2704.52,-375.48 2699.6,-375.45 2694.78,-375.32 2690.07,-375.09 2685.47,-374.76 2681,-374.33 2676.65,-373.79 2672.43,-373.16 2668.35,-372.43 2664.42,-371.6 2660.63,-370.66 2656.98,-369.62 2653.49,-368.49 2650.15,-367.25 2646.96,-365.92 2643.93,-364.49 2641.05,-362.97 2638.33,-361.35 2635.77,-359.65 2633.37,-357.86 2631.14,-355.98 2629.06,-354.03 2627.15,-352 2625.41,-349.9 2623.84,-347.74 2622.45,-345.52 2621.22,-343.24 2620.18,-340.92 2619.32,-338.56 2618.65,-336.16 2618.16,-333.74 2617.88,-331.29 2617.79,-328.84 2617.9,-326.38 2618.23,-323.93 2618.77,-321.49 2619.53,-319.07 2620.51,-316.68 2621.72,-314.34 2623.17,-312.03 2624.84,-309.79 2626.76,-307.61 2628.91,-305.5 2631.31,-303.47 2633.95,-301.52 2636.84,-299.68 2639.96,-297.93 2643.33,-296.3 2646.93,-294.78 2650.77,-293.38 2654.84,-292.1 2659.12,-290.96 2663.62,-289.95 2668.32,-289.08 2673.22,-288.36 2678.29,-287.77 2683.54,-287.34 2688.94,-287.05 2694.47,-286.91 2700.13,-286.91 2705.89,-287.07 2711.74,-287.36 2717.65,-287.81 2723.61,-288.39 2729.59,-289.12 2735.57,-289.97 2741.53,-290.96 2747.44,-292.08 2753.29,-293.31 2759.04,-294.66 2764.68,-296.12 2770.18,-297.69 2775.52,-299.35"/>
<text text-anchor="middle" x="2713.12" y="-329.72" font-family="sans-serif" font-size="16.00">ClaimContext</text>
</g>
<!-- PolicyManagementContext&#45;&gt;ClaimContext -->
<g id="edge8" class="edge">
<title>PolicyManagementContext&#45;&gt;ClaimContext</title>
<path fill="none" stroke="black" stroke-width="2" d="M2446.16,-439.92C2507.56,-415.68 2585.05,-385.09 2640.7,-363.11"/>
<text text-anchor="middle" x="2600.62" y="-403.76" font-family="sans-serif" font-size="12.00"> &#160;&#160;&#160;&#160;&#160;&#160;&#160;&#160;&#160;&#160;&#160;&#160;&#160;&#160;&#160;&#160;&#160;&#160;&#160;&#160;&#160;&#160;&#160;&#160;&#160;&#160;&#160;&#160;&#160;&#160;&#160;&#160;&#160;&#160;&#160;&#160;&#160;&#160;&#160;</text>
<polygon fill="white" stroke="none" points="2633.7,-354.11 2633.7,-371.11 2647.7,-371.11 2647.7,-354.11 2633.7,-354.11"/>
<text text-anchor="start" x="2635.7" y="-359.51" font-family="sans-serif" font-size="12.00">D</text>
<polygon fill="white" stroke="none" points="2439.16,-430.92 2439.16,-447.92 2453.16,-447.92 2453.16,-430.92 2439.16,-430.92"/>
<text text-anchor="start" x="2441.16" y="-436.32" font-family="sans-serif" font-size="12.00">U</text>
</g>
<!-- PolicyExecutorContext -->
<g id="node9" class="node">
<title>PolicyExecutorContext</title>
<polygon fill="none" stroke="black" stroke-width="2" points="2356.51,-376.75 2347.03,-376.32 2337.67,-375.76 2328.48,-375.09 2319.49,-374.31 2310.74,-373.42 2302.26,-372.42 2294.09,-371.31 2286.26,-370.1 2278.79,-368.8 2271.72,-367.4 2265.06,-365.91 2258.85,-364.34 2253.1,-362.68 2247.82,-360.94 2243.04,-359.14 2238.76,-357.26 2235,-355.33 2231.76,-353.33 2229.03,-351.29 2226.84,-349.19 2225.16,-347.06 2224,-344.89 2223.36,-342.69 2223.21,-340.47 2223.56,-338.23 2224.38,-335.98 2225.67,-333.72 2227.4,-331.46 2229.56,-329.21 2232.13,-326.97 2235.08,-324.75 2238.41,-322.55 2242.08,-320.38 2246.07,-318.24 2250.36,-316.15 2254.93,-314.1 2259.76,-312.1 2264.82,-310.16 2270.1,-308.28 2275.56,-306.47 2281.19,-304.73 2286.98,-303.06 2292.89,-301.48 2298.93,-299.98 2305.05,-298.57 2311.27,-297.25 2317.55,-296.04 2323.88,-294.92 2330.26,-293.9 2336.67,-292.99 2343.11,-292.19 2349.55,-291.5 2356.01,-290.93 2362.46,-290.47 2368.91,-290.13 2375.34,-289.9 2381.76,-289.79 2388.16,-289.81 2394.53,-289.94 2400.87,-290.19 2407.17,-290.57 2413.44,-291.06 2419.66,-291.66 2425.84,-292.39 2431.96,-293.22 2438.03,-294.17 2444.02,-295.23 2449.95,-296.4 2455.79,-297.67 2461.54,-299.04 2467.19,-300.51 2472.73,-302.07 2478.15,-303.72 2483.42,-305.46 2488.54,-307.27 2493.49,-309.16 2498.26,-311.12 2502.83,-313.14 2507.17,-315.22 2511.28,-317.35 2515.13,-319.53 2518.7,-321.75 2521.97,-324 2524.93,-326.28 2527.56,-328.59 2529.82,-330.9 2531.71,-333.23 2533.21,-335.55 2534.3,-337.87 2534.96,-340.18 2535.18,-342.47 2534.95,-344.73 2534.25,-346.96 2533.07,-349.16 2531.4,-351.31 2529.25,-353.41 2526.59,-355.45 2523.44,-357.43 2519.79,-359.35 2515.65,-361.19 2511.02,-362.95 2505.91,-364.63 2500.33,-366.22 2494.3,-367.72 2487.83,-369.12 2480.95,-370.42 2473.66,-371.62 2466,-372.71 2458,-373.69 2449.68,-374.56 2441.07,-375.31 2432.21,-375.95 2423.13,-376.47 2413.86,-376.87 2404.45,-377.15 2394.92,-377.31 2385.33,-377.35 2375.7,-377.27 2366.08,-377.07 2356.51,-376.75"/>
<text text-anchor="middle" x="2381.12" y="-329.72" font-family="sans-serif" font-size="16.00">PolicyExecutorContext</text>
</g>
<!-- PolicyManagementContext&#45;&gt;PolicyExecutorContext -->
<g id="edge9" class="edge">
<title>PolicyManagementContext&#45;&gt;PolicyExecutorContext</title>
<path fill="none" stroke="black" stroke-width="2" d="M2358.25,-431.71C2362.36,-414.26 2366.98,-394.6 2370.99,-377.55"/>
<text text-anchor="middle" x="2425.62" y="-403.76" font-family="sans-serif" font-size="12.00"> &#160;&#160;&#160;&#160;&#160;&#160;&#160;&#160;&#160;&#160;&#160;&#160;&#160;&#160;&#160;&#160;&#160;&#160;&#160;&#160;&#160;&#160;&#160;&#160;&#160;&#160;&#160;&#160;&#160;&#160;&#160;&#160;&#160;&#160;&#160;&#160;&#160;&#160;&#160;</text>
<polygon fill="white" stroke="none" points="2363.99,-368.55 2363.99,-385.55 2377.99,-385.55 2377.99,-368.55 2363.99,-368.55"/>
<text text-anchor="start" x="2365.99" y="-373.95" font-family="sans-serif" font-size="12.00">D</text>
<polygon fill="white" stroke="none" points="2351.25,-422.71 2351.25,-439.71 2365.25,-439.71 2365.25,-422.71 2351.25,-422.71"/>
<text text-anchor="start" x="2353.25" y="-428.11" font-family="sans-serif" font-size="12.00">U</text>
</g>
<!-- PolicyManagementContext&#45;&gt;SalesWebAppContext -->
<g id="edge10" class="edge">
<title>PolicyManagementContext&#45;&gt;SalesWebAppContext</title>
<path fill="none" stroke="black" stroke-width="2" d="M2199.53,-463.43C1929.76,-434.91 1361.51,-374.84 1107.5,-347.99"/>
<text text-anchor="middle" x="1764.62" y="-403.76" font-family="sans-serif" font-size="12.00"> &#160;&#160;&#160;&#160;&#160;&#160;&#160;&#160;&#160;&#160;&#160;&#160;&#160;&#160;&#160;&#160;&#160;&#160;&#160;&#160;&#160;&#160;&#160;&#160;&#160;&#160;&#160;&#160;&#160;&#160;&#160;&#160;&#160;&#160;&#160;&#160;&#160;&#160;&#160;</text>
<polygon fill="white" stroke="none" points="1100.5,-338.99 1100.5,-355.99 1114.5,-355.99 1114.5,-338.99 1100.5,-338.99"/>
<text text-anchor="start" x="1102.5" y="-344.39" font-family="sans-serif" font-size="12.00">D</text>
<polygon fill="white" stroke="none" points="2175.53,-453.43 2175.53,-472.43 2191.53,-472.43 2191.53,-453.43 2175.53,-453.43"/>
<polyline fill="none" stroke="black" points="2191.53,-453.43 2191.53,-472.43"/>
<text text-anchor="start" x="2178.53" y="-459.83" font-family="sans-serif" font-size="12.00">U</text>
<polygon fill="white" stroke="none" points="2191.53,-453.43 2191.53,-472.43 2224.53,-472.43 2224.53,-453.43 2191.53,-453.43"/>
<polygon fill="none" stroke="black" points="2191.53,-453.43 2191.53,-472.43 2224.53,-472.43 2224.53,-453.43 2191.53,-453.43"/>
<text text-anchor="start" x="2194.53" y="-459.83" font-family="sans-serif" font-size="12.00">OHS</text>
</g>
<!-- SalesWebAppContext&#45;&gt;App5DeContext -->
<g id="edge11" class="edge">
<title>SalesWebAppContext&#45;&gt;App5DeContext</title>
<path fill="none" stroke="black" stroke-width="2" d="M869.76,-298.42C848.77,-289.64 827.61,-279.1 809.12,-266.69 794.39,-256.8 780.45,-243.45 768.76,-230.61"/>
<text text-anchor="middle" x="869.62" y="-257.09" font-family="sans-serif" font-size="12.00"> &#160;&#160;&#160;&#160;&#160;&#160;&#160;&#160;&#160;&#160;&#160;&#160;&#160;&#160;&#160;&#160;&#160;&#160;&#160;&#160;&#160;&#160;&#160;&#160;&#160;&#160;&#160;&#160;&#160;&#160;&#160;&#160;&#160;&#160;&#160;&#160;&#160;&#160;&#160;</text>
<polygon fill="white" stroke="none" points="761.76,-221.61 761.76,-238.61 775.76,-238.61 775.76,-221.61 761.76,-221.61"/>
<text text-anchor="start" x="763.76" y="-227.01" font-family="sans-serif" font-size="12.00">D</text>
<polygon fill="white" stroke="none" points="862.76,-289.42 862.76,-306.42 876.76,-306.42 876.76,-289.42 862.76,-289.42"/>
<text text-anchor="start" x="864.76" y="-294.82" font-family="sans-serif" font-size="12.00">U</text>
</g>
<!-- SalesWebAppContext&#45;&gt;App5DeContext -->
<g id="edge12" class="edge">
<title>SalesWebAppContext&#45;&gt;App5DeContext</title>
<path fill="none" stroke="black" stroke-width="2" d="M960.79,-290.67C952.9,-277.31 942.63,-263.47 930.12,-253.69 901.45,-231.3 864.64,-216.51 830.8,-206.83"/>
<text text-anchor="middle" x="1002.62" y="-257.09" font-family="sans-serif" font-size="12.00"> &#160;&#160;&#160;&#160;&#160;&#160;&#160;&#160;&#160;&#160;&#160;&#160;&#160;&#160;&#160;&#160;&#160;&#160;&#160;&#160;&#160;&#160;&#160;&#160;&#160;&#160;&#160;&#160;&#160;&#160;&#160;&#160;&#160;&#160;&#160;&#160;&#160;&#160;&#160;</text>
<polygon fill="white" stroke="none" points="823.8,-197.83 823.8,-214.83 837.8,-214.83 837.8,-197.83 823.8,-197.83"/>
<text text-anchor="start" x="825.8" y="-203.23" font-family="sans-serif" font-size="12.00">D</text>
<polygon fill="white" stroke="none" points="953.79,-281.67 953.79,-298.67 967.79,-298.67 967.79,-281.67 953.79,-281.67"/>
<text text-anchor="start" x="955.79" y="-287.07" font-family="sans-serif" font-size="12.00">U</text>
</g>
<!-- QuoteManagementContext&#45;&gt;SalesWebAppContext -->
<g id="edge13" class="edge">
<title>QuoteManagementContext&#45;&gt;SalesWebAppContext</title>
<path fill="none" stroke="black" stroke-width="2" d="M1403.16,-447.94C1307.86,-422.39 1174.13,-386.54 1082.69,-362.02"/>
<text text-anchor="middle" x="1325.62" y="-403.76" font-family="sans-serif" font-size="12.00"> &#160;&#160;&#160;&#160;&#160;&#160;&#160;&#160;&#160;&#160;&#160;&#160;&#160;&#160;&#160;&#160;&#160;&#160;&#160;&#160;&#160;&#160;&#160;&#160;&#160;&#160;&#160;&#160;&#160;&#160;&#160;&#160;&#160;&#160;&#160;&#160;&#160;&#160;&#160;</text>
<polygon fill="white" stroke="none" points="1075.69,-353.02 1075.69,-370.02 1089.69,-370.02 1089.69,-353.02 1075.69,-353.02"/>
<text text-anchor="start" x="1077.69" y="-358.42" font-family="sans-serif" font-size="12.00">D</text>
<polygon fill="white" stroke="none" points="1368.16,-437.94 1368.16,-456.94 1384.16,-456.94 1384.16,-437.94 1368.16,-437.94"/>
<polyline fill="none" stroke="black" points="1384.16,-437.94 1384.16,-456.94"/>
<text text-anchor="start" x="1371.16" y="-444.34" font-family="sans-serif" font-size="12.00">U</text>
<polygon fill="white" stroke="none" points="1384.16,-437.94 1384.16,-456.94 1438.16,-456.94 1438.16,-437.94 1384.16,-437.94"/>
<polygon fill="none" stroke="black" points="1384.16,-437.94 1384.16,-456.94 1438.16,-456.94 1438.16,-437.94 1384.16,-437.94"/>
<text text-anchor="start" x="1387.16" y="-444.34" font-family="sans-serif" font-size="12.00">OHS, PL</text>
</g>
<!-- CalculatorContext -->
<g id="node12" class="node">
<title>CalculatorContext</title>
<polygon fill="none" stroke="black" stroke-width="2" points="2071.08,-890.04 2075.55,-887.66 2080.26,-885.36 2085.21,-883.16 2090.37,-881.06 2095.73,-879.07 2101.26,-877.2 2106.96,-875.45 2112.79,-873.84 2118.74,-872.38 2124.79,-871.05 2130.92,-869.88 2137.11,-868.87 2143.35,-868.01 2149.62,-867.32 2155.89,-866.79 2162.16,-866.42 2168.41,-866.23 2174.62,-866.19 2180.78,-866.32 2186.86,-866.61 2192.87,-867.06 2198.79,-867.66 2204.59,-868.41 2210.28,-869.31 2215.85,-870.35 2221.27,-871.53 2226.55,-872.83 2231.67,-874.25 2236.62,-875.78 2241.4,-877.43 2246,-879.16 2250.41,-880.99 2254.62,-882.9 2258.63,-884.88 2262.43,-886.93 2266.01,-889.03 2269.38,-891.18 2272.52,-893.37 2275.42,-895.59 2278.09,-897.83 2280.52,-900.09 2282.7,-902.36 2284.63,-904.63 2286.3,-906.89 2287.72,-909.14 2288.86,-911.38 2289.74,-913.59 2290.34,-915.78 2290.66,-917.93 2290.7,-920.05 2290.46,-922.13 2289.93,-924.16 2289.11,-926.15 2287.99,-928.09 2286.59,-929.98 2284.88,-931.82 2282.89,-933.6 2280.59,-935.32 2278,-936.99 2275.12,-938.59 2271.95,-940.14 2268.49,-941.63 2264.75,-943.06 2260.73,-944.42 2256.44,-945.72 2251.89,-946.96 2247.08,-948.14 2242.02,-949.25 2236.73,-950.29 2231.22,-951.27 2225.5,-952.17 2219.58,-953.01 2213.48,-953.78 2207.21,-954.47 2200.8,-955.09 2194.25,-955.63 2187.6,-956.1 2180.85,-956.48 2174.04,-956.77 2167.17,-956.98 2160.28,-957.1 2153.39,-957.13 2146.51,-957.07 2139.68,-956.9 2132.91,-956.64 2126.23,-956.27 2119.66,-955.8 2113.23,-955.23 2106.95,-954.54 2100.86,-953.75 2094.97,-952.84 2089.31,-951.82 2083.89,-950.69 2078.74,-949.44 2073.87,-948.08 2069.3,-946.61 2065.05,-945.03 2061.14,-943.34 2057.57,-941.55 2054.37,-939.65 2051.53,-937.65 2049.07,-935.56 2047.01,-933.38 2045.34,-931.12 2044.06,-928.78 2043.19,-926.36 2042.72,-923.89 2042.66,-921.36 2043,-918.78 2043.73,-916.16 2044.86,-913.51 2046.37,-910.85 2048.26,-908.17 2050.51,-905.5 2053.13,-902.83 2056.09,-900.19 2059.37,-897.58 2062.98,-895.01 2066.89,-892.49 2071.08,-890.04"/>
<text text-anchor="middle" x="2172.12" y="-911.15" font-family="sans-serif" font-size="16.00">CalculatorContext</text>
</g>
<!-- CalculatorContext&#45;&gt;QuoteManagementContext -->
<g id="edge14" class="edge">
<title>CalculatorContext&#45;&gt;QuoteManagementContext</title>
<path fill="none" stroke="black" stroke-width="2" d="M2071.01,-889.9C1974.34,-861.68 1831.45,-805.41 1749.12,-704.72 1712.12,-659.48 1752.19,-622.88 1715.12,-577.69 1692.38,-549.97 1659.72,-529.55 1627.56,-514.81"/>
<text text-anchor="middle" x="1809.62" y="-695.12" font-family="sans-serif" font-size="12.00"> &#160;&#160;&#160;&#160;&#160;&#160;&#160;&#160;&#160;&#160;&#160;&#160;&#160;&#160;&#160;&#160;&#160;&#160;&#160;&#160;&#160;&#160;&#160;&#160;&#160;&#160;&#160;&#160;&#160;&#160;&#160;&#160;&#160;&#160;&#160;&#160;&#160;&#160;&#160;</text>
<polygon fill="white" stroke="none" points="1620.56,-505.81 1620.56,-522.81 1634.56,-522.81 1634.56,-505.81 1620.56,-505.81"/>
<text text-anchor="start" x="1622.56" y="-511.21" font-family="sans-serif" font-size="12.00">D</text>
<polygon fill="white" stroke="none" points="2036.01,-879.9 2036.01,-898.9 2052.01,-898.9 2052.01,-879.9 2036.01,-879.9"/>
<polyline fill="none" stroke="black" points="2052.01,-879.9 2052.01,-898.9"/>
<text text-anchor="start" x="2039.01" y="-886.3" font-family="sans-serif" font-size="12.00">U</text>
<polygon fill="white" stroke="none" points="2052.01,-879.9 2052.01,-898.9 2106.01,-898.9 2106.01,-879.9 2052.01,-879.9"/>
<polygon fill="none" stroke="black" points="2052.01,-879.9 2052.01,-898.9 2106.01,-898.9 2106.01,-879.9 2052.01,-879.9"/>
<text text-anchor="start" x="2055.01" y="-886.3" font-family="sans-serif" font-size="12.00">OHS, PL</text>
</g>
<!-- ProductManagementContext -->
<g id="node13" class="node">
<title>ProductManagementContext</title>
<polygon fill="none" stroke="black" stroke-width="2" points="2189.52,-726.31 2201.03,-726.54 2212.43,-726.9 2223.67,-727.38 2234.69,-727.97 2245.46,-728.68 2255.93,-729.5 2266.06,-730.43 2275.81,-731.47 2285.15,-732.61 2294.05,-733.86 2302.46,-735.21 2310.37,-736.65 2317.75,-738.18 2324.58,-739.8 2330.83,-741.5 2336.5,-743.28 2341.57,-745.13 2346.03,-747.05 2349.87,-749.03 2353.1,-751.07 2355.72,-753.16 2357.72,-755.3 2359.11,-757.48 2359.91,-759.69 2360.13,-761.93 2359.77,-764.19 2358.86,-766.47 2357.42,-768.75 2355.46,-771.04 2353,-773.33 2350.07,-775.6 2346.7,-777.87 2342.9,-780.1 2338.7,-782.32 2334.13,-784.49 2329.22,-786.63 2323.98,-788.72 2318.44,-790.76 2312.63,-792.74 2306.58,-794.66 2300.3,-796.52 2293.82,-798.3 2287.15,-800 2280.33,-801.62 2273.36,-803.15 2266.26,-804.59 2259.06,-805.93 2251.76,-807.18 2244.38,-808.32 2236.93,-809.36 2229.43,-810.3 2221.87,-811.12 2214.28,-811.82 2206.65,-812.42 2199,-812.89 2191.33,-813.25 2183.65,-813.49 2175.96,-813.61 2168.27,-813.61 2160.58,-813.49 2152.9,-813.25 2145.23,-812.89 2137.58,-812.42 2129.95,-811.82 2122.36,-811.12 2114.81,-810.3 2107.3,-809.36 2099.85,-808.32 2092.47,-807.18 2085.17,-805.93 2077.97,-804.59 2070.88,-803.15 2063.91,-801.62 2057.08,-800 2050.42,-798.3 2043.93,-796.52 2037.65,-794.66 2031.6,-792.74 2025.79,-790.76 2020.26,-788.72 2015.02,-786.63 2010.1,-784.49 2005.53,-782.32 2001.33,-780.1 1997.54,-777.87 1994.16,-775.6 1991.23,-773.33 1988.78,-771.04 1986.81,-768.75 1985.37,-766.47 1984.46,-764.19 1984.1,-761.93 1984.32,-759.69 1985.12,-757.48 1986.52,-755.3 1988.52,-753.16 1991.13,-751.07 1994.36,-749.03 1998.21,-747.05 2002.67,-745.13 2007.73,-743.28 2013.4,-741.5 2019.66,-739.8 2026.48,-738.18 2033.86,-736.65 2041.77,-735.21 2050.19,-733.86 2059.08,-732.61 2068.42,-731.47 2078.17,-730.43 2088.31,-729.5 2098.78,-728.68 2109.54,-727.97 2120.57,-727.38 2131.8,-726.9 2143.2,-726.54 2154.72,-726.31 2166.31,-726.19 2177.92,-726.19 2189.52,-726.31"/>
<text text-anchor="middle" x="2172.12" y="-766.1" font-family="sans-serif" font-size="16.00">ProductManagementContext</text>
</g>
<!-- CalculatorContext&#45;&gt;ProductManagementContext -->
<g id="edge15" class="edge">
<title>CalculatorContext&#45;&gt;ProductManagementContext</title>
<path fill="none" stroke="black" stroke-width="2" d="M2172.12,-865.92C2172.12,-849.03 2172.12,-830.19 2172.12,-813.76"/>
<text text-anchor="middle" x="2222.12" y="-838.47" font-family="sans-serif" font-size="12.00">Customer/Supplier</text>
<polygon fill="white" stroke="none" points="2165.12,-804.76 2165.12,-821.76 2179.12,-821.76 2179.12,-804.76 2165.12,-804.76"/>
<text text-anchor="start" x="2167.12" y="-810.16" font-family="sans-serif" font-size="12.00">D</text>
<polygon fill="white" stroke="none" points="2165.12,-856.92 2165.12,-873.92 2179.12,-873.92 2179.12,-856.92 2165.12,-856.92"/>
<text text-anchor="start" x="2167.12" y="-862.32" font-family="sans-serif" font-size="12.00">U</text>
</g>
<!-- ProductManagementContext&#45;&gt;PolicyManagementContext -->
<g id="edge18" class="edge">
<title>ProductManagementContext&#45;&gt;PolicyManagementContext</title>
<path fill="none" stroke="black" stroke-width="2" d="M2297.83,-734.09C2326.37,-720.06 2353.21,-700.6 2370.12,-673.72 2398.46,-628.66 2383.05,-565.82 2367.11,-524.31"/>
<text text-anchor="middle" x="2445.62" y="-622.61" font-family="sans-serif" font-size="12.00"> &#160;&#160;&#160;&#160;&#160;&#160;&#160;&#160;&#160;&#160;&#160;&#160;&#160;&#160;&#160;&#160;&#160;&#160;&#160;&#160;&#160;&#160;&#160;&#160;&#160;&#160;&#160;&#160;&#160;&#160;&#160;&#160;&#160;&#160;&#160;&#160;&#160;&#160;&#160;</text>
<polygon fill="white" stroke="none" points="2348.11,-514.31 2348.11,-533.31 2364.11,-533.31 2364.11,-514.31 2348.11,-514.31"/>
<polyline fill="none" stroke="black" points="2364.11,-514.31 2364.11,-533.31"/>
<text text-anchor="start" x="2351.11" y="-520.71" font-family="sans-serif" font-size="12.00">D</text>
<polygon fill="white" stroke="none" points="2364.11,-514.31 2364.11,-533.31 2387.11,-533.31 2387.11,-514.31 2364.11,-514.31"/>
<polygon fill="none" stroke="black" points="2364.11,-514.31 2364.11,-533.31 2387.11,-533.31 2387.11,-514.31 2364.11,-514.31"/>
<text text-anchor="start" x="2367.11" y="-520.71" font-family="sans-serif" font-size="12.00">CF</text>
<polygon fill="white" stroke="none" points="2290.83,-725.09 2290.83,-742.09 2304.83,-742.09 2304.83,-725.09 2290.83,-725.09"/>
<text text-anchor="start" x="2292.83" y="-730.49" font-family="sans-serif" font-size="12.00">U</text>
</g>
<!-- ProductManagementContext&#45;&gt;QuoteManagementContext -->
<g id="edge17" class="edge">
<title>ProductManagementContext&#45;&gt;QuoteManagementContext</title>
<path fill="none" stroke="black" stroke-width="2" d="M1991.17,-750.66C1940.02,-736.91 1888.67,-713.45 1853.12,-673.72 1814.86,-630.97 1870.1,-587.85 1830.12,-546.69 1807.77,-523.69 1741.58,-508.03 1675.99,-497.8"/>
<text text-anchor="middle" x="1913.62" y="-622.61" font-family="sans-serif" font-size="12.00"> &#160;&#160;&#160;&#160;&#160;&#160;&#160;&#160;&#160;&#160;&#160;&#160;&#160;&#160;&#160;&#160;&#160;&#160;&#160;&#160;&#160;&#160;&#160;&#160;&#160;&#160;&#160;&#160;&#160;&#160;&#160;&#160;&#160;&#160;&#160;&#160;&#160;&#160;&#160;</text>
<polygon fill="white" stroke="none" points="1668.99,-488.8 1668.99,-505.8 1682.99,-505.8 1682.99,-488.8 1668.99,-488.8"/>
<text text-anchor="start" x="1670.99" y="-494.2" font-family="sans-serif" font-size="12.00">D</text>
<polygon fill="white" stroke="none" points="1956.17,-740.66 1956.17,-759.66 1972.17,-759.66 1972.17,-740.66 1956.17,-740.66"/>
<polyline fill="none" stroke="black" points="1972.17,-740.66 1972.17,-759.66"/>
<text text-anchor="start" x="1959.17" y="-747.06" font-family="sans-serif" font-size="12.00">U</text>
<polygon fill="white" stroke="none" points="1972.17,-740.66 1972.17,-759.66 2026.17,-759.66 2026.17,-740.66 1972.17,-740.66"/>
<polygon fill="none" stroke="black" points="1972.17,-740.66 1972.17,-759.66 2026.17,-759.66 2026.17,-740.66 1972.17,-740.66"/>
<text text-anchor="start" x="1975.17" y="-747.06" font-family="sans-serif" font-size="12.00">OHS, PL</text>
</g>
<!-- PolicyTemplateManagement -->
<g id="node14" class="node">
<title>PolicyTemplateManagement</title>
<polygon fill="none" stroke="black" stroke-width="2" points="2163.97,-669.48 2152.44,-669.39 2141,-669.18 2129.7,-668.85 2118.58,-668.4 2107.7,-667.84 2097.09,-667.15 2086.79,-666.35 2076.85,-665.44 2067.3,-664.42 2058.17,-663.29 2049.5,-662.05 2041.31,-660.72 2033.63,-659.28 2026.48,-657.75 2019.89,-656.14 2013.86,-654.43 2008.42,-652.65 2003.57,-650.79 1999.32,-648.86 1995.67,-646.86 1992.62,-644.81 1990.17,-642.7 1988.32,-640.54 1987.06,-638.34 1986.37,-636.11 1986.25,-633.84 1986.67,-631.56 1987.63,-629.25 1989.1,-626.94 1991.07,-624.63 1993.51,-622.31 1996.4,-620.01 1999.71,-617.73 2003.43,-615.46 2007.52,-613.23 2011.98,-611.03 2016.76,-608.87 2021.84,-606.76 2027.22,-604.71 2032.85,-602.71 2038.72,-600.78 2044.8,-598.92 2051.09,-597.13 2057.55,-595.43 2064.18,-593.8 2070.94,-592.27 2077.84,-590.84 2084.85,-589.5 2091.97,-588.26 2099.17,-587.12 2106.46,-586.09 2113.82,-585.18 2121.24,-584.37 2128.72,-583.68 2136.24,-583.11 2143.81,-582.65 2151.42,-582.31 2159.06,-582.09 2166.73,-581.99 2174.42,-582.01 2182.13,-582.15 2189.85,-582.41 2197.57,-582.79 2205.3,-583.28 2213.02,-583.89 2220.73,-584.61 2228.4,-585.44 2236.05,-586.38 2243.65,-587.43 2251.19,-588.58 2258.65,-589.83 2266.03,-591.18 2273.3,-592.62 2280.44,-594.15 2287.45,-595.76 2294.28,-597.45 2300.94,-599.22 2307.38,-601.06 2313.58,-602.97 2319.53,-604.93 2325.2,-606.96 2330.55,-609.03 2335.56,-611.14 2340.22,-613.3 2344.47,-615.49 2348.32,-617.7 2351.72,-619.94 2354.65,-622.19 2357.08,-624.45 2359.01,-626.72 2360.4,-628.98 2361.23,-631.23 2361.48,-633.47 2361.15,-635.69 2360.22,-637.88 2358.68,-640.05 2356.51,-642.17 2353.72,-644.25 2350.31,-646.28 2346.27,-648.25 2341.61,-650.17 2336.33,-652.02 2330.46,-653.8 2323.99,-655.51 2316.96,-657.13 2309.38,-658.67 2301.27,-660.13 2292.67,-661.49 2283.6,-662.75 2274.1,-663.92 2264.19,-664.98 2253.93,-665.94 2243.34,-666.78 2232.48,-667.52 2221.38,-668.14 2210.09,-668.64 2198.66,-669.03 2187.13,-669.3 2175.55,-669.45 2163.97,-669.48"/>
<text text-anchor="middle" x="2172.12" y="-621.91" font-family="sans-serif" font-size="16.00">PolicyTemplateManagement</text>
</g>
<!-- ProductManagementContext&#45;&gt;PolicyTemplateManagement -->
<g id="edge16" class="edge">
<title>ProductManagementContext&#45;&gt;PolicyTemplateManagement</title>
<path fill="none" stroke="black" stroke-width="2" d="M2172.12,-725.85C2172.12,-708.03 2172.12,-687.41 2172.12,-669.61"/>
<text text-anchor="middle" x="2232.62" y="-695.12" font-family="sans-serif" font-size="12.00"> &#160;&#160;&#160;&#160;&#160;&#160;&#160;&#160;&#160;&#160;&#160;&#160;&#160;&#160;&#160;&#160;&#160;&#160;&#160;&#160;&#160;&#160;&#160;&#160;&#160;&#160;&#160;&#160;&#160;&#160;&#160;&#160;&#160;&#160;&#160;&#160;&#160;&#160;&#160;</text>
<polygon fill="white" stroke="none" points="2165.12,-660.61 2165.12,-677.61 2179.12,-677.61 2179.12,-660.61 2165.12,-660.61"/>
<text text-anchor="start" x="2167.12" y="-666.01" font-family="sans-serif" font-size="12.00">D</text>
<polygon fill="white" stroke="none" points="2165.12,-716.85 2165.12,-733.85 2179.12,-733.85 2179.12,-716.85 2165.12,-716.85"/>
<text text-anchor="start" x="2167.12" y="-722.25" font-family="sans-serif" font-size="12.00">U</text>
</g>
<!-- PolicyTemplateManagement&#45;&gt;QuoteManagementContext -->
<g id="edge19" class="edge">
<title>PolicyTemplateManagement&#45;&gt;QuoteManagementContext</title>
<path fill="none" stroke="black" stroke-width="2" d="M2057.99,-594.83C1998.57,-579.66 1924.62,-561.39 1858.12,-546.69 1792.12,-532.11 1718.49,-517.64 1656.77,-506"/>
<text text-anchor="middle" x="1969.62" y="-550.09" font-family="sans-serif" font-size="12.00"> &#160;&#160;&#160;&#160;&#160;&#160;&#160;&#160;&#160;&#160;&#160;&#160;&#160;&#160;&#160;&#160;&#160;&#160;&#160;&#160;&#160;&#160;&#160;&#160;&#160;&#160;&#160;&#160;&#160;&#160;&#160;&#160;&#160;&#160;&#160;&#160;&#160;&#160;&#160;</text>
<polygon fill="white" stroke="none" points="1649.77,-497 1649.77,-514 1663.77,-514 1663.77,-497 1649.77,-497"/>
<text text-anchor="start" x="1651.77" y="-502.4" font-family="sans-serif" font-size="12.00">D</text>
<polygon fill="white" stroke="none" points="2050.99,-585.83 2050.99,-602.83 2064.99,-602.83 2064.99,-585.83 2050.99,-585.83"/>
<text text-anchor="start" x="2052.99" y="-591.23" font-family="sans-serif" font-size="12.00">U</text>
</g>
<!-- CheckoutContext -->
<g id="node15" class="node">
<title>CheckoutContext</title>
<polygon fill="none" stroke="black" stroke-width="2" points="852.5,-619.09 853.56,-616.24 854.93,-613.43 856.62,-610.66 858.61,-607.95 860.91,-605.31 863.5,-602.75 866.38,-600.28 869.55,-597.91 872.98,-595.65 876.67,-593.51 880.62,-591.49 884.81,-589.6 889.22,-587.84 893.85,-586.23 898.68,-584.77 903.71,-583.45 908.91,-582.29 914.27,-581.28 919.79,-580.43 925.43,-579.74 931.2,-579.2 937.06,-578.81 943.02,-578.58 949.04,-578.5 955.12,-578.56 961.24,-578.77 967.38,-579.11 973.53,-579.59 979.67,-580.2 985.79,-580.93 991.86,-581.78 997.87,-582.74 1003.81,-583.8 1009.66,-584.96 1015.4,-586.21 1021.03,-587.54 1026.52,-588.96 1031.85,-590.44 1037.03,-591.99 1042.02,-593.59 1046.82,-595.25 1051.42,-596.96 1055.8,-598.7 1059.95,-600.48 1063.86,-602.3 1067.51,-604.13 1070.91,-606 1074.04,-607.88 1076.88,-609.77 1079.44,-611.68 1081.7,-613.59 1083.66,-615.51 1085.31,-617.44 1086.65,-619.36 1087.67,-621.29 1088.37,-623.21 1088.75,-625.14 1088.8,-627.05 1088.53,-628.96 1087.94,-630.87 1087.02,-632.77 1085.78,-634.65 1084.22,-636.53 1082.34,-638.39 1080.15,-640.24 1077.66,-642.08 1074.87,-643.89 1071.79,-645.69 1068.43,-647.47 1064.79,-649.21 1060.89,-650.93 1056.73,-652.62 1052.33,-654.27 1047.7,-655.88 1042.85,-657.45 1037.8,-658.97 1032.56,-660.43 1027.14,-661.83 1021.55,-663.17 1015.83,-664.44 1009.97,-665.63 1004,-666.74 997.94,-667.77 991.79,-668.69 985.58,-669.52 979.33,-670.24 973.06,-670.85 966.77,-671.34 960.49,-671.7 954.24,-671.94 948.03,-672.05 941.89,-672.02 935.82,-671.85 929.85,-671.53 924,-671.07 918.27,-670.46 912.69,-669.7 907.28,-668.79 902.03,-667.73 896.98,-666.52 892.14,-665.16 887.51,-663.66 883.12,-662.02 878.97,-660.24 875.07,-658.32 871.45,-656.28 868.09,-654.12 865.02,-651.84 862.25,-649.46 859.77,-646.98 857.6,-644.41 855.75,-641.77 854.21,-639.06 852.99,-636.28 852.09,-633.47 851.52,-630.62 851.28,-627.74 851.36,-624.85 851.77,-621.97 852.5,-619.09"/>
<text text-anchor="middle" x="970.12" y="-621.91" font-family="sans-serif" font-size="16.00">CheckoutContext</text>
</g>
<!-- CheckoutContext&#45;&gt;SalesWebAppContext -->
<g id="edge21" class="edge">
<title>CheckoutContext&#45;&gt;SalesWebAppContext</title>
<path fill="none" stroke="black" stroke-width="2" d="M971.69,-579.05C973.54,-525.42 976.59,-436.87 978.47,-382.33"/>
<text text-anchor="middle" x="1036.62" y="-476.93" font-family="sans-serif" font-size="12.00"> &#160;&#160;&#160;&#160;&#160;&#160;&#160;&#160;&#160;&#160;&#160;&#160;&#160;&#160;&#160;&#160;&#160;&#160;&#160;&#160;&#160;&#160;&#160;&#160;&#160;&#160;&#160;&#160;&#160;&#160;&#160;&#160;&#160;&#160;&#160;&#160;&#160;&#160;&#160;</text>
<polygon fill="white" stroke="none" points="971.47,-373.33 971.47,-390.33 985.47,-390.33 985.47,-373.33 971.47,-373.33"/>
<text text-anchor="start" x="973.47" y="-378.73" font-family="sans-serif" font-size="12.00">D</text>
<polygon fill="white" stroke="none" points="964.69,-570.05 964.69,-587.05 978.69,-587.05 978.69,-570.05 964.69,-570.05"/>
<text text-anchor="start" x="966.69" y="-575.45" font-family="sans-serif" font-size="12.00">U</text>
</g>
<!-- CheckoutContext&#45;&gt;QuoteManagementContext -->
<g id="edge20" class="edge">
<title>CheckoutContext&#45;&gt;QuoteManagementContext</title>
<path fill="none" stroke="black" stroke-width="2" d="M1046.77,-594.84C1063.56,-588.78 1081.34,-582.73 1098.12,-577.69 1152.04,-561.53 1287.5,-531.08 1390.32,-508.66"/>
<text text-anchor="middle" x="1278.62" y="-550.09" font-family="sans-serif" font-size="12.00"> &#160;&#160;&#160;&#160;&#160;&#160;&#160;&#160;&#160;&#160;&#160;&#160;&#160;&#160;&#160;&#160;&#160;&#160;&#160;&#160;&#160;&#160;&#160;&#160;&#160;&#160;&#160;&#160;&#160;&#160;&#160;&#160;&#160;&#160;&#160;&#160;&#160;&#160;&#160;</text>
<polygon fill="white" stroke="none" points="1383.32,-499.66 1383.32,-516.66 1397.32,-516.66 1397.32,-499.66 1383.32,-499.66"/>
<text text-anchor="start" x="1385.32" y="-505.06" font-family="sans-serif" font-size="12.00">D</text>
<polygon fill="white" stroke="none" points="1039.77,-585.84 1039.77,-602.84 1053.77,-602.84 1053.77,-585.84 1039.77,-585.84"/>
<text text-anchor="start" x="1041.77" y="-591.24" font-family="sans-serif" font-size="12.00">U</text>
</g>
<!-- ShoppingCartContext -->
<g id="node16" class="node">
<title>ShoppingCartContext</title>
<polygon fill="none" stroke="black" stroke-width="2" points="274.47,-484.9 273.32,-482.05 272.56,-479.2 272.2,-476.36 272.24,-473.55 272.68,-470.78 273.52,-468.06 274.77,-465.4 276.42,-462.81 278.47,-460.29 280.92,-457.87 283.75,-455.54 286.96,-453.31 290.55,-451.19 294.5,-449.19 298.81,-447.31 303.45,-445.56 308.43,-443.94 313.72,-442.45 319.3,-441.1 325.17,-439.89 331.3,-438.81 337.67,-437.88 344.27,-437.08 351.08,-436.43 358.07,-435.91 365.22,-435.52 372.52,-435.27 379.93,-435.14 387.43,-435.14 395.01,-435.26 402.64,-435.5 410.29,-435.85 417.94,-436.3 425.58,-436.86 433.16,-437.52 440.68,-438.27 448.11,-439.11 455.42,-440.03 462.6,-441.03 469.62,-442.1 476.47,-443.25 483.12,-444.45 489.56,-445.72 495.77,-447.04 501.73,-448.42 507.42,-449.85 512.83,-451.32 517.95,-452.84 522.76,-454.39 527.25,-455.99 531.41,-457.62 535.23,-459.29 538.7,-460.99 541.82,-462.73 544.58,-464.49 546.97,-466.28 548.99,-468.1 550.63,-469.95 551.9,-471.82 552.8,-473.72 553.31,-475.64 553.46,-477.59 553.23,-479.55 552.63,-481.53 551.66,-483.53 550.33,-485.54 548.65,-487.56 546.62,-489.59 544.25,-491.63 541.54,-493.67 538.51,-495.7 535.16,-497.73 531.5,-499.75 527.55,-501.75 523.31,-503.73 518.8,-505.68 514.03,-507.59 509,-509.47 503.74,-511.3 498.26,-513.07 492.56,-514.79 486.67,-516.43 480.59,-518 474.35,-519.48 467.95,-520.88 461.41,-522.17 454.75,-523.36 447.98,-524.44 441.12,-525.39 434.19,-526.22 427.2,-526.92 420.16,-527.48 413.1,-527.9 406.03,-528.16 398.97,-528.28 391.93,-528.24 384.94,-528.04 378,-527.68 371.15,-527.16 364.39,-526.47 357.74,-525.62 351.22,-524.62 344.85,-523.45 338.65,-522.12 332.62,-520.65 326.79,-519.02 321.18,-517.25 315.8,-515.35 310.67,-513.31 305.8,-511.16 301.2,-508.88 296.9,-506.51 292.9,-504.03 289.22,-501.47 285.87,-498.83 282.87,-496.13 280.22,-493.38 277.93,-490.58 276.01,-487.75 274.47,-484.9"/>
<text text-anchor="middle" x="414.12" y="-476.23" font-family="sans-serif" font-size="16.00">ShoppingCartContext</text>
</g>
<!-- CheckoutContext&#45;&gt;ShoppingCartContext -->
<g id="edge22" class="edge">
<title>CheckoutContext&#45;&gt;ShoppingCartContext</title>
<path fill="none" stroke="black" stroke-width="2" d="M863.74,-602.09C781.68,-584.02 665.6,-557.09 565.12,-528.69 545.81,-523.24 525.23,-517.02 505.68,-510.91"/>
<text text-anchor="middle" x="736.62" y="-550.09" font-family="sans-serif" font-size="12.00"> &#160;&#160;&#160;&#160;&#160;&#160;&#160;&#160;&#160;&#160;&#160;&#160;&#160;&#160;&#160;&#160;&#160;&#160;&#160;&#160;&#160;&#160;&#160;&#160;&#160;&#160;&#160;&#160;&#160;&#160;&#160;&#160;&#160;&#160;&#160;&#160;&#160;&#160;&#160;</text>
<polygon fill="white" stroke="none" points="498.68,-501.91 498.68,-518.91 512.68,-518.91 512.68,-501.91 498.68,-501.91"/>
<text text-anchor="start" x="500.68" y="-507.31" font-family="sans-serif" font-size="12.00">D</text>
<polygon fill="white" stroke="none" points="856.74,-593.09 856.74,-610.09 870.74,-610.09 870.74,-593.09 856.74,-593.09"/>
<text text-anchor="start" x="858.74" y="-598.49" font-family="sans-serif" font-size="12.00">U</text>
</g>
<!-- ShoppingCartContext&#45;&gt;AffiliateContext -->
<g id="edge23" class="edge">
<title>ShoppingCartContext&#45;&gt;AffiliateContext</title>
<path fill="none" stroke="black" stroke-width="2" d="M413.44,-435.58C413.33,-428.17 413.22,-420.54 413.12,-413.36 412.97,-402.68 412.82,-391.2 412.68,-380.38"/>
<text text-anchor="middle" x="473.62" y="-403.76" font-family="sans-serif" font-size="12.00"> &#160;&#160;&#160;&#160;&#160;&#160;&#160;&#160;&#160;&#160;&#160;&#160;&#160;&#160;&#160;&#160;&#160;&#160;&#160;&#160;&#160;&#160;&#160;&#160;&#160;&#160;&#160;&#160;&#160;&#160;&#160;&#160;&#160;&#160;&#160;&#160;&#160;&#160;&#160;</text>
<polygon fill="white" stroke="none" points="405.68,-371.38 405.68,-388.38 419.68,-388.38 419.68,-371.38 405.68,-371.38"/>
<text text-anchor="start" x="407.68" y="-376.78" font-family="sans-serif" font-size="12.00">D</text>
<polygon fill="white" stroke="none" points="406.44,-426.58 406.44,-443.58 420.44,-443.58 420.44,-426.58 406.44,-426.58"/>
<text text-anchor="start" x="408.44" y="-431.98" font-family="sans-serif" font-size="12.00">U</text>
</g>
<!-- ClaimEvaluatorContext -->
<g id="node17" class="node">
<title>ClaimEvaluatorContext</title>
<polygon fill="none" stroke="black" stroke-width="2" points="2585.04,-465.32 2588.17,-462.61 2591.67,-459.96 2595.52,-457.38 2599.71,-454.88 2604.23,-452.47 2609.07,-450.16 2614.19,-447.95 2619.6,-445.86 2625.27,-443.9 2631.19,-442.06 2637.33,-440.37 2643.69,-438.82 2650.24,-437.42 2656.96,-436.17 2663.84,-435.08 2670.85,-434.15 2677.98,-433.38 2685.21,-432.78 2692.53,-432.33 2699.91,-432.05 2707.33,-431.93 2714.78,-431.97 2722.23,-432.16 2729.68,-432.5 2737.1,-432.99 2744.48,-433.62 2751.79,-434.39 2759.03,-435.29 2766.18,-436.31 2773.21,-437.45 2780.11,-438.71 2786.88,-440.06 2793.48,-441.52 2799.91,-443.06 2806.16,-444.68 2812.2,-446.38 2818.02,-448.14 2823.62,-449.96 2828.97,-451.83 2834.06,-453.75 2838.89,-455.7 2843.43,-457.69 2847.68,-459.7 2851.62,-461.73 2855.25,-463.77 2858.56,-465.82 2861.52,-467.87 2864.15,-469.93 2866.42,-471.97 2868.33,-474.01 2869.87,-476.04 2871.04,-478.05 2871.82,-480.04 2872.22,-482.01 2872.24,-483.96 2871.86,-485.89 2871.08,-487.79 2869.91,-489.67 2868.35,-491.51 2866.39,-493.33 2864.04,-495.11 2861.3,-496.87 2858.17,-498.59 2854.67,-500.27 2850.8,-501.92 2846.56,-503.54 2841.96,-505.12 2837.02,-506.65 2831.75,-508.15 2826.16,-509.59 2820.26,-511 2814.07,-512.35 2807.61,-513.65 2800.89,-514.9 2793.93,-516.09 2786.75,-517.21 2779.37,-518.27 2771.81,-519.26 2764.1,-520.18 2756.25,-521.01 2748.3,-521.76 2740.26,-522.43 2732.15,-523 2724.01,-523.47 2715.86,-523.84 2707.73,-524.1 2699.63,-524.26 2691.6,-524.29 2683.66,-524.21 2675.83,-524.01 2668.15,-523.67 2660.63,-523.21 2653.29,-522.62 2646.17,-521.89 2639.28,-521.03 2632.65,-520.04 2626.29,-518.9 2620.22,-517.64 2614.47,-516.23 2609.06,-514.7 2603.99,-513.04 2599.28,-511.25 2594.94,-509.34 2591,-507.31 2587.45,-505.17 2584.31,-502.92 2581.59,-500.58 2579.29,-498.14 2577.42,-495.62 2575.98,-493.03 2574.98,-490.38 2574.4,-487.67 2574.26,-484.91 2574.55,-482.12 2575.27,-479.31 2576.41,-476.49 2577.96,-473.67 2579.92,-470.86 2582.29,-468.07 2585.04,-465.32"/>
<text text-anchor="middle" x="2725.12" y="-476.23" font-family="sans-serif" font-size="16.00">ClaimEvaluatorContext</text>
</g>
<!-- ClaimEvaluatorContext&#45;&gt;ClaimContext -->
<g id="edge24" class="edge">
<title>ClaimEvaluatorContext&#45;&gt;ClaimContext</title>
<path fill="none" stroke="black" stroke-width="2" d="M2721.19,-431.71C2719.68,-413.6 2717.98,-393.11 2716.53,-375.63"/>
<text text-anchor="middle" x="2779.62" y="-403.76" font-family="sans-serif" font-size="12.00"> &#160;&#160;&#160;&#160;&#160;&#160;&#160;&#160;&#160;&#160;&#160;&#160;&#160;&#160;&#160;&#160;&#160;&#160;&#160;&#160;&#160;&#160;&#160;&#160;&#160;&#160;&#160;&#160;&#160;&#160;&#160;&#160;&#160;&#160;&#160;&#160;&#160;&#160;&#160;</text>
<polygon fill="white" stroke="none" points="2709.53,-366.63 2709.53,-383.63 2723.53,-383.63 2723.53,-366.63 2709.53,-366.63"/>
<text text-anchor="start" x="2711.53" y="-372.03" font-family="sans-serif" font-size="12.00">D</text>
<polygon fill="white" stroke="none" points="2714.19,-422.71 2714.19,-439.71 2728.19,-439.71 2728.19,-422.71 2714.19,-422.71"/>
<text text-anchor="start" x="2716.19" y="-428.11" font-family="sans-serif" font-size="12.00">U</text>
</g>
<!-- DMSContext -->
<g id="node18" class="node">
<title>DMSContext</title>
<polygon fill="none" stroke="black" stroke-width="2" points="2656.66,-1018.91 2662.75,-1019.54 2668.74,-1020.29 2674.6,-1021.16 2680.32,-1022.13 2685.86,-1023.21 2691.22,-1024.38 2696.35,-1025.66 2701.25,-1027.03 2705.9,-1028.5 2710.28,-1030.05 2714.38,-1031.68 2718.17,-1033.39 2721.65,-1035.17 2724.81,-1037.01 2727.64,-1038.92 2730.13,-1040.89 2732.28,-1042.91 2734.08,-1044.97 2735.54,-1047.08 2736.65,-1049.22 2737.41,-1051.39 2737.83,-1053.59 2737.92,-1055.81 2737.67,-1058.04 2737.11,-1060.27 2736.23,-1062.51 2735.05,-1064.74 2733.59,-1066.97 2731.84,-1069.18 2729.83,-1071.37 2727.58,-1073.54 2725.09,-1075.67 2722.37,-1077.77 2719.46,-1079.82 2716.35,-1081.83 2713.07,-1083.79 2709.63,-1085.69 2706.05,-1087.53 2702.35,-1089.3 2698.52,-1091 2694.6,-1092.63 2690.59,-1094.17 2686.51,-1095.63 2682.37,-1097.01 2678.18,-1098.29 2673.94,-1099.48 2669.68,-1100.57 2665.4,-1101.56 2661.11,-1102.44 2656.81,-1103.22 2652.51,-1103.89 2648.22,-1104.44 2643.94,-1104.88 2639.68,-1105.21 2635.44,-1105.42 2631.23,-1105.51 2627.05,-1105.48 2622.9,-1105.33 2618.79,-1105.07 2614.71,-1104.68 2610.67,-1104.18 2606.68,-1103.55 2602.73,-1102.82 2598.83,-1101.96 2594.99,-1100.99 2591.19,-1099.92 2587.46,-1098.73 2583.79,-1097.44 2580.19,-1096.04 2576.67,-1094.55 2573.22,-1092.96 2569.87,-1091.28 2566.6,-1089.51 2563.44,-1087.67 2560.39,-1085.74 2557.47,-1083.75 2554.67,-1081.69 2552.01,-1079.57 2549.51,-1077.39 2547.17,-1075.17 2545,-1072.91 2543.02,-1070.61 2541.24,-1068.28 2539.66,-1065.94 2538.31,-1063.58 2537.19,-1061.21 2536.32,-1058.84 2535.7,-1056.48 2535.34,-1054.13 2535.26,-1051.81 2535.47,-1049.51 2535.96,-1047.25 2536.76,-1045.03 2537.86,-1042.85 2539.27,-1040.74 2540.99,-1038.68 2543.02,-1036.69 2545.37,-1034.77 2548.03,-1032.93 2550.99,-1031.17 2554.27,-1029.5 2557.84,-1027.93 2561.7,-1026.45 2565.84,-1025.08 2570.26,-1023.81 2574.93,-1022.65 2579.84,-1021.6 2584.97,-1020.67 2590.32,-1019.85 2595.85,-1019.16 2601.55,-1018.58 2607.4,-1018.13 2613.38,-1017.79 2619.45,-1017.59 2625.61,-1017.5 2631.81,-1017.54 2638.05,-1017.7 2644.28,-1017.98 2650.5,-1018.38 2656.66,-1018.91"/>
<text text-anchor="middle" x="2634.12" y="-1057.89" font-family="sans-serif" font-size="16.00">DMSContext</text>
</g>
<!-- 3rdPartyContext -->
<g id="node19" class="node">
<title>3rdPartyContext</title>
<polygon fill="none" stroke="black" stroke-width="2" points="1161.31,-663.05 1156.08,-661.59 1151.03,-660.02 1146.16,-658.37 1141.5,-656.64 1137.07,-654.84 1132.89,-652.96 1128.97,-651.02 1125.32,-649.02 1121.97,-646.98 1118.93,-644.89 1116.21,-642.76 1113.81,-640.61 1111.75,-638.43 1110.03,-636.23 1108.66,-634.02 1107.63,-631.8 1106.96,-629.58 1106.64,-627.37 1106.67,-625.17 1107.04,-622.98 1107.76,-620.81 1108.8,-618.67 1110.17,-616.56 1111.85,-614.48 1113.83,-612.45 1116.1,-610.45 1118.65,-608.5 1121.47,-606.6 1124.52,-604.75 1127.81,-602.96 1131.32,-601.23 1135.02,-599.56 1138.9,-597.96 1142.94,-596.43 1147.13,-594.96 1151.44,-593.57 1155.87,-592.26 1160.38,-591.03 1164.97,-589.87 1169.62,-588.8 1174.32,-587.82 1179.04,-586.92 1183.77,-586.11 1188.5,-585.4 1193.22,-584.78 1197.92,-584.25 1202.58,-583.82 1207.19,-583.5 1211.74,-583.27 1216.23,-583.14 1220.64,-583.12 1224.98,-583.2 1229.23,-583.39 1233.38,-583.69 1237.44,-584.09 1241.4,-584.6 1245.25,-585.22 1249,-585.95 1252.63,-586.78 1256.16,-587.73 1259.57,-588.78 1262.86,-589.93 1266.03,-591.19 1269.08,-592.56 1272.01,-594.02 1274.82,-595.58 1277.5,-597.23 1280.05,-598.98 1282.48,-600.81 1284.76,-602.72 1286.92,-604.72 1288.93,-606.79 1290.8,-608.92 1292.52,-611.12 1294.08,-613.38 1295.49,-615.68 1296.73,-618.03 1297.81,-620.42 1298.71,-622.83 1299.42,-625.27 1299.95,-627.72 1300.29,-630.18 1300.42,-632.64 1300.34,-635.08 1300.05,-637.51 1299.54,-639.91 1298.81,-642.28 1297.84,-644.61 1296.64,-646.88 1295.19,-649.09 1293.5,-651.24 1291.56,-653.32 1289.38,-655.31 1286.94,-657.21 1284.25,-659.02 1281.32,-660.72 1278.13,-662.32 1274.71,-663.81 1271.04,-665.17 1267.15,-666.42 1263.03,-667.53 1258.69,-668.52 1254.15,-669.37 1249.42,-670.09 1244.51,-670.66 1239.43,-671.1 1234.2,-671.4 1228.83,-671.55 1223.35,-671.57 1217.77,-671.44 1212.12,-671.18 1206.4,-670.78 1200.66,-670.25 1194.89,-669.58 1189.14,-668.79 1183.42,-667.87 1177.75,-666.83 1172.16,-665.68 1166.67,-664.42 1161.31,-663.05"/>
<text text-anchor="middle" x="1210.12" y="-621.91" font-family="sans-serif" font-size="16.00">3rdPartyContext</text>
</g>
<!-- 3rdPartyContext&#45;&gt;QuoteManagementContext -->
<g id="edge25" class="edge">
<title>3rdPartyContext&#45;&gt;QuoteManagementContext</title>
<path fill="none" stroke="black" stroke-width="2" d="M1274.14,-594.94C1319.66,-573.77 1381.36,-545.08 1431.45,-521.79"/>
<text text-anchor="middle" x="1433.62" y="-550.09" font-family="sans-serif" font-size="12.00"> &#160;&#160;&#160;&#160;&#160;&#160;&#160;&#160;&#160;&#160;&#160;&#160;&#160;&#160;&#160;&#160;&#160;&#160;&#160;&#160;&#160;&#160;&#160;&#160;&#160;&#160;&#160;&#160;&#160;&#160;&#160;&#160;&#160;&#160;&#160;&#160;&#160;&#160;&#160;</text>
<polygon fill="white" stroke="none" points="1408.45,-511.79 1408.45,-530.79 1424.45,-530.79 1424.45,-511.79 1408.45,-511.79"/>
<polyline fill="none" stroke="black" points="1424.45,-511.79 1424.45,-530.79"/>
<text text-anchor="start" x="1411.45" y="-518.19" font-family="sans-serif" font-size="12.00">D</text>
<polygon fill="white" stroke="none" points="1424.45,-511.79 1424.45,-530.79 1455.45,-530.79 1455.45,-511.79 1424.45,-511.79"/>
<polygon fill="none" stroke="black" points="1424.45,-511.79 1424.45,-530.79 1455.45,-530.79 1455.45,-511.79 1424.45,-511.79"/>
<text text-anchor="start" x="1427.45" y="-518.19" font-family="sans-serif" font-size="12.00">ACL</text>
<polygon fill="white" stroke="none" points="1267.14,-585.94 1267.14,-602.94 1281.14,-602.94 1281.14,-585.94 1267.14,-585.94"/>
<text text-anchor="start" x="1269.14" y="-591.34" font-family="sans-serif" font-size="12.00">U</text>
</g>
<!-- NotificationContext -->
<g id="node20" class="node">
<title>NotificationContext</title>
<polygon fill="none" stroke="black" stroke-width="2" points="2981.83,-1028.74 2988.14,-1030.62 2994.17,-1032.58 2999.91,-1034.62 3005.32,-1036.71 3010.39,-1038.87 3015.09,-1041.07 3019.4,-1043.31 3023.31,-1045.59 3026.8,-1047.89 3029.85,-1050.21 3032.45,-1052.53 3034.6,-1054.87 3036.28,-1057.2 3037.49,-1059.51 3038.23,-1061.82 3038.49,-1064.09 3038.27,-1066.35 3037.59,-1068.56 3036.44,-1070.74 3034.83,-1072.87 3032.78,-1074.96 3030.29,-1076.99 3027.38,-1078.97 3024.06,-1080.89 3020.36,-1082.75 3016.28,-1084.53 3011.86,-1086.26 3007.1,-1087.91 3002.04,-1089.48 2996.7,-1090.98 2991.1,-1092.41 2985.26,-1093.76 2979.22,-1095.02 2972.99,-1096.21 2966.6,-1097.31 2960.08,-1098.33 2953.44,-1099.27 2946.73,-1100.12 2939.95,-1100.88 2933.14,-1101.56 2926.31,-1102.15 2919.48,-1102.65 2912.69,-1103.06 2905.94,-1103.38 2899.26,-1103.6 2892.66,-1103.74 2886.15,-1103.78 2879.77,-1103.72 2873.51,-1103.57 2867.39,-1103.33 2861.42,-1102.99 2855.61,-1102.55 2849.97,-1102.01 2844.51,-1101.38 2839.24,-1100.64 2834.16,-1099.81 2829.27,-1098.88 2824.58,-1097.85 2820.1,-1096.73 2815.82,-1095.5 2811.75,-1094.18 2807.89,-1092.77 2804.25,-1091.26 2800.81,-1089.66 2797.6,-1087.97 2794.6,-1086.2 2791.81,-1084.34 2789.25,-1082.4 2786.91,-1080.39 2784.78,-1078.3 2782.89,-1076.15 2781.22,-1073.94 2779.77,-1071.67 2778.56,-1069.35 2777.59,-1066.99 2776.85,-1064.59 2776.36,-1062.16 2776.11,-1059.71 2776.12,-1057.25 2776.38,-1054.78 2776.91,-1052.3 2777.7,-1049.84 2778.76,-1047.4 2780.09,-1044.99 2781.71,-1042.61 2783.61,-1040.27 2785.8,-1037.99 2788.28,-1035.76 2791.05,-1033.61 2794.12,-1031.54 2797.48,-1029.55 2801.14,-1027.66 2805.1,-1025.87 2809.35,-1024.18 2813.89,-1022.61 2818.71,-1021.17 2823.81,-1019.85 2829.18,-1018.66 2834.82,-1017.61 2840.7,-1016.7 2846.82,-1015.93 2853.17,-1015.31 2859.73,-1014.84 2866.48,-1014.52 2873.4,-1014.36 2880.47,-1014.34 2887.68,-1014.48 2895,-1014.77 2902.4,-1015.2 2909.87,-1015.79 2917.37,-1016.51 2924.87,-1017.38 2932.36,-1018.38 2939.8,-1019.51 2947.16,-1020.77 2954.42,-1022.15 2961.55,-1023.64 2968.51,-1025.24 2975.28,-1026.94 2981.83,-1028.74"/>
<text text-anchor="middle" x="2897.12" y="-1057.89" font-family="sans-serif" font-size="16.00">NotificationContext</text>
</g>
<!-- OrderManagementContext -->
<g id="node21" class="node">
<title>OrderManagementContext</title>
<polygon fill="none" stroke="black" stroke-width="2" points="728.03,-802.85 719.76,-800.97 711.85,-799.01 704.33,-796.97 697.23,-794.87 690.59,-792.72 684.43,-790.52 678.77,-788.28 673.65,-786 669.07,-783.7 665.07,-781.38 661.66,-779.05 658.84,-776.72 656.64,-774.39 655.05,-772.07 654.09,-769.77 653.75,-767.49 654.03,-765.24 654.92,-763.03 656.43,-760.85 658.54,-758.71 661.23,-756.63 664.49,-754.59 668.31,-752.62 672.66,-750.7 677.52,-748.84 682.86,-747.05 688.66,-745.33 694.9,-743.68 701.53,-742.11 708.54,-740.6 715.88,-739.18 723.54,-737.83 731.46,-736.56 739.63,-735.38 748.01,-734.27 756.56,-733.25 765.26,-732.32 774.06,-731.47 782.95,-730.7 791.89,-730.03 800.84,-729.44 809.79,-728.94 818.7,-728.53 827.55,-728.21 836.31,-727.99 844.97,-727.85 853.49,-727.81 861.87,-727.87 870.08,-728.01 878.1,-728.26 885.93,-728.6 893.54,-729.04 900.94,-729.58 908.09,-730.21 915.01,-730.94 921.68,-731.78 928.08,-732.71 934.23,-733.73 940.11,-734.86 945.72,-736.09 951.06,-737.41 956.12,-738.82 960.9,-740.33 965.4,-741.93 969.61,-743.62 973.55,-745.39 977.2,-747.25 980.56,-749.19 983.63,-751.2 986.42,-753.29 988.9,-755.44 991.1,-757.65 992.99,-759.92 994.57,-762.24 995.85,-764.6 996.82,-767 997.46,-769.43 997.78,-771.88 997.78,-774.34 997.43,-776.81 996.75,-779.28 995.71,-781.74 994.32,-784.19 992.57,-786.6 990.45,-788.98 987.96,-791.32 985.09,-793.6 981.84,-795.82 978.2,-797.98 974.18,-800.05 969.77,-802.04 964.97,-803.93 959.78,-805.72 954.21,-807.41 948.26,-808.97 941.93,-810.42 935.24,-811.74 928.2,-812.93 920.81,-813.98 913.09,-814.89 905.07,-815.66 896.74,-816.28 888.14,-816.75 879.3,-817.06 870.22,-817.23 860.94,-817.24 851.49,-817.11 841.89,-816.82 832.19,-816.38 822.4,-815.8 812.56,-815.08 802.72,-814.21 792.9,-813.21 783.15,-812.08 773.49,-810.82 763.97,-809.44 754.63,-807.95 745.5,-806.35 736.62,-804.64 728.03,-802.85"/>
<text text-anchor="middle" x="839.12" y="-766.1" font-family="sans-serif" font-size="16.00">OrderManagementContext</text>
</g>
<!-- OrderManagementContext&#45;&gt;BinderManagementContext -->
<g id="edge28" class="edge">
<title>OrderManagementContext&#45;&gt;BinderManagementContext</title>
<path fill="none" stroke="black" stroke-width="2" d="M971.89,-744.2C1069.09,-725.77 1204.06,-699.43 1322.12,-673.72 1346.34,-668.45 1372.16,-662.51 1396.86,-656.68"/>
<text text-anchor="middle" x="1289.62" y="-695.12" font-family="sans-serif" font-size="12.00"> &#160;&#160;&#160;&#160;&#160;&#160;&#160;&#160;&#160;&#160;&#160;&#160;&#160;&#160;&#160;&#160;&#160;&#160;&#160;&#160;&#160;&#160;&#160;&#160;&#160;&#160;&#160;&#160;&#160;&#160;&#160;&#160;&#160;&#160;&#160;&#160;&#160;&#160;&#160;</text>
<polygon fill="white" stroke="none" points="1389.86,-647.68 1389.86,-664.68 1403.86,-664.68 1403.86,-647.68 1389.86,-647.68"/>
<text text-anchor="start" x="1391.86" y="-653.08" font-family="sans-serif" font-size="12.00">D</text>
<polygon fill="white" stroke="none" points="936.89,-734.2 936.89,-753.2 952.89,-753.2 952.89,-734.2 936.89,-734.2"/>
<polyline fill="none" stroke="black" points="952.89,-734.2 952.89,-753.2"/>
<text text-anchor="start" x="939.89" y="-740.6" font-family="sans-serif" font-size="12.00">U</text>
<polygon fill="white" stroke="none" points="952.89,-734.2 952.89,-753.2 1006.89,-753.2 1006.89,-734.2 952.89,-734.2"/>
<polygon fill="none" stroke="black" points="952.89,-734.2 952.89,-753.2 1006.89,-753.2 1006.89,-734.2 952.89,-734.2"/>
<text text-anchor="start" x="955.89" y="-740.6" font-family="sans-serif" font-size="12.00">OHS, PL</text>
</g>
<!-- OrderManagementContext&#45;&gt;SalesWebAppContext -->
<g id="edge26" class="edge">
<title>OrderManagementContext&#45;&gt;SalesWebAppContext</title>
<path fill="none" stroke="black" stroke-width="2" d="M832.97,-727.64C827.86,-681.84 824.62,-606.49 847.12,-546.69 870.31,-485.05 912.64,-422.06 943.32,-380.91"/>
<text text-anchor="middle" x="907.62" y="-550.09" font-family="sans-serif" font-size="12.00"> &#160;&#160;&#160;&#160;&#160;&#160;&#160;&#160;&#160;&#160;&#160;&#160;&#160;&#160;&#160;&#160;&#160;&#160;&#160;&#160;&#160;&#160;&#160;&#160;&#160;&#160;&#160;&#160;&#160;&#160;&#160;&#160;&#160;&#160;&#160;&#160;&#160;&#160;&#160;</text>
<polygon fill="white" stroke="none" points="936.32,-371.91 936.32,-388.91 950.32,-388.91 950.32,-371.91 936.32,-371.91"/>
<text text-anchor="start" x="938.32" y="-377.31" font-family="sans-serif" font-size="12.00">D</text>
<polygon fill="white" stroke="none" points="797.97,-717.64 797.97,-736.64 813.97,-736.64 813.97,-717.64 797.97,-717.64"/>
<polyline fill="none" stroke="black" points="813.97,-717.64 813.97,-736.64"/>
<text text-anchor="start" x="800.97" y="-724.04" font-family="sans-serif" font-size="12.00">U</text>
<polygon fill="white" stroke="none" points="813.97,-717.64 813.97,-736.64 867.97,-736.64 867.97,-717.64 813.97,-717.64"/>
<polygon fill="none" stroke="black" points="813.97,-717.64 813.97,-736.64 867.97,-736.64 867.97,-717.64 813.97,-717.64"/>
<text text-anchor="start" x="816.97" y="-724.04" font-family="sans-serif" font-size="12.00">OHS, PL</text>
</g>
<!-- OrderManagementContext&#45;&gt;CheckoutContext -->
<g id="edge27" class="edge">
<title>OrderManagementContext&#45;&gt;CheckoutContext</title>
<path fill="none" stroke="black" stroke-width="2" d="M877.01,-727.77C893.18,-710.22 912.1,-689.68 928.64,-671.73"/>
<text text-anchor="middle" x="968.62" y="-695.12" font-family="sans-serif" font-size="12.00"> &#160;&#160;&#160;&#160;&#160;&#160;&#160;&#160;&#160;&#160;&#160;&#160;&#160;&#160;&#160;&#160;&#160;&#160;&#160;&#160;&#160;&#160;&#160;&#160;&#160;&#160;&#160;&#160;&#160;&#160;&#160;&#160;&#160;&#160;&#160;&#160;&#160;&#160;&#160;</text>
<polygon fill="white" stroke="none" points="921.64,-662.73 921.64,-679.73 935.64,-679.73 935.64,-662.73 921.64,-662.73"/>
<text text-anchor="start" x="923.64" y="-668.13" font-family="sans-serif" font-size="12.00">D</text>
<polygon fill="white" stroke="none" points="870.01,-718.77 870.01,-735.77 884.01,-735.77 884.01,-718.77 870.01,-718.77"/>
<text text-anchor="start" x="872.01" y="-724.17" font-family="sans-serif" font-size="12.00">U</text>
</g>
<!-- PaymentManagementContext -->
<g id="node22" class="node">
<title>PaymentManagementContext</title>
<polygon fill="none" stroke="black" stroke-width="2" points="66.95,-925.89 63.82,-923.11 61.19,-920.31 59.09,-917.52 57.52,-914.73 56.49,-911.96 56,-909.23 56.07,-906.54 56.7,-903.89 57.89,-901.31 59.64,-898.8 61.94,-896.36 64.8,-894.01 68.2,-891.76 72.14,-889.6 76.6,-887.55 81.57,-885.61 87.05,-883.78 93,-882.08 99.42,-880.49 106.28,-879.04 113.56,-877.7 121.24,-876.5 129.29,-875.42 137.68,-874.47 146.39,-873.65 155.38,-872.96 164.64,-872.38 174.12,-871.94 183.79,-871.61 193.63,-871.4 203.59,-871.3 213.66,-871.31 223.79,-871.43 233.94,-871.65 244.1,-871.97 254.22,-872.39 264.28,-872.89 274.24,-873.49 284.07,-874.17 293.74,-874.92 303.23,-875.76 312.5,-876.66 321.53,-877.64 330.29,-878.68 338.77,-879.78 346.93,-880.95 354.75,-882.17 362.22,-883.45 369.32,-884.79 376.03,-886.18 382.34,-887.61 388.23,-889.1 393.69,-890.64 398.71,-892.22 403.28,-893.85 407.4,-895.52 411.05,-897.24 414.24,-899 416.96,-900.8 419.21,-902.64 420.99,-904.52 422.29,-906.44 423.13,-908.4 423.5,-910.39 423.41,-912.41 422.86,-914.46 421.86,-916.54 420.42,-918.65 418.54,-920.77 416.23,-922.91 413.49,-925.06 410.35,-927.22 406.8,-929.38 402.87,-931.53 398.55,-933.68 393.86,-935.81 388.82,-937.92 383.42,-940 377.7,-942.04 371.65,-944.04 365.3,-945.99 358.66,-947.88 351.73,-949.7 344.54,-951.44 337.1,-953.1 329.42,-954.67 321.52,-956.14 313.42,-957.51 305.14,-958.75 296.68,-959.88 288.07,-960.88 279.32,-961.74 270.46,-962.46 261.51,-963.03 252.47,-963.46 243.38,-963.72 234.25,-963.83 225.11,-963.78 215.97,-963.56 206.86,-963.17 197.8,-962.63 188.82,-961.91 179.93,-961.03 171.17,-959.99 162.55,-958.79 154.1,-957.43 145.85,-955.92 137.82,-954.27 130.02,-952.48 122.5,-950.55 115.26,-948.5 108.34,-946.33 101.76,-944.05 95.54,-941.67 89.7,-939.2 84.27,-936.65 79.25,-934.04 74.69,-931.36 70.58,-928.64 66.95,-925.89"/>
<text text-anchor="middle" x="244.12" y="-911.15" font-family="sans-serif" font-size="16.00">PaymentManagementContext</text>
</g>
<!-- PaymentManagementContext&#45;&gt;CustomerContext -->
<g id="edge29" class="edge">
<title>PaymentManagementContext&#45;&gt;CustomerContext</title>
<path fill="none" stroke="black" stroke-width="2" d="M244.12,-871.7C244.12,-843.22 244.12,-804.8 244.12,-770.9 244.12,-770.9 244.12,-770.9 244.12,-332.52 244.12,-298.53 258.15,-263.01 272.28,-235.84"/>
<text text-anchor="middle" x="304.62" y="-550.09" font-family="sans-serif" font-size="12.00"> &#160;&#160;&#160;&#160;&#160;&#160;&#160;&#160;&#160;&#160;&#160;&#160;&#160;&#160;&#160;&#160;&#160;&#160;&#160;&#160;&#160;&#160;&#160;&#160;&#160;&#160;&#160;&#160;&#160;&#160;&#160;&#160;&#160;&#160;&#160;&#160;&#160;&#160;&#160;</text>
<polygon fill="white" stroke="none" points="265.28,-226.84 265.28,-243.84 279.28,-243.84 279.28,-226.84 265.28,-226.84"/>
<text text-anchor="start" x="267.28" y="-232.24" font-family="sans-serif" font-size="12.00">D</text>
<polygon fill="white" stroke="none" points="237.12,-862.7 237.12,-879.7 251.12,-879.7 251.12,-862.7 237.12,-862.7"/>
<text text-anchor="start" x="239.12" y="-868.1" font-family="sans-serif" font-size="12.00">U</text>
</g>
<!-- PaymentManagementContext&#45;&gt;SellerContext -->
<g id="edge30" class="edge">
<title>PaymentManagementContext&#45;&gt;SellerContext</title>
<path fill="none" stroke="black" stroke-width="2" d="M162.64,-872.16C127.86,-848.05 95.12,-813.93 95.12,-770.9 95.12,-770.9 95.12,-770.9 95.12,-187.27 95.12,-155.27 99.27,-119.43 103.35,-91.97"/>
<text text-anchor="middle" x="155.62" y="-476.93" font-family="sans-serif" font-size="12.00"> &#160;&#160;&#160;&#160;&#160;&#160;&#160;&#160;&#160;&#160;&#160;&#160;&#160;&#160;&#160;&#160;&#160;&#160;&#160;&#160;&#160;&#160;&#160;&#160;&#160;&#160;&#160;&#160;&#160;&#160;&#160;&#160;&#160;&#160;&#160;&#160;&#160;&#160;&#160;</text>
<polygon fill="white" stroke="none" points="96.35,-82.97 96.35,-99.97 110.35,-99.97 110.35,-82.97 96.35,-82.97"/>
<text text-anchor="start" x="98.35" y="-88.37" font-family="sans-serif" font-size="12.00">D</text>
<polygon fill="white" stroke="none" points="155.64,-863.16 155.64,-880.16 169.64,-880.16 169.64,-863.16 155.64,-863.16"/>
<text text-anchor="start" x="157.64" y="-868.56" font-family="sans-serif" font-size="12.00">U</text>
</g>
<!-- PaymentManagementContext&#45;&gt;OrderManagementContext -->
<g id="edge31" class="edge">
<title>PaymentManagementContext&#45;&gt;OrderManagementContext</title>
<path fill="none" stroke="black" stroke-width="2" d="M368.12,-884.14C470.21,-859.59 614.2,-824.97 716.03,-800.49"/>
<text text-anchor="middle" x="620.62" y="-838.47" font-family="sans-serif" font-size="12.00"> &#160;&#160;&#160;&#160;&#160;&#160;&#160;&#160;&#160;&#160;&#160;&#160;&#160;&#160;&#160;&#160;&#160;&#160;&#160;&#160;&#160;&#160;&#160;&#160;&#160;&#160;&#160;&#160;&#160;&#160;&#160;&#160;&#160;&#160;&#160;&#160;&#160;&#160;&#160;</text>
<polygon fill="white" stroke="none" points="709.03,-791.49 709.03,-808.49 723.03,-808.49 723.03,-791.49 709.03,-791.49"/>
<text text-anchor="start" x="711.03" y="-796.89" font-family="sans-serif" font-size="12.00">D</text>
<polygon fill="white" stroke="none" points="361.12,-875.14 361.12,-892.14 375.12,-892.14 375.12,-875.14 361.12,-875.14"/>
<text text-anchor="start" x="363.12" y="-880.54" font-family="sans-serif" font-size="12.00">U</text>
</g>
<!-- PolicyProviderContext -->
<g id="node23" class="node">
<title>PolicyProviderContext</title>
<polygon fill="none" stroke="black" stroke-width="2" points="2476.44,-1087.22 2471.06,-1089.57 2465.38,-1091.84 2459.44,-1094.01 2453.25,-1096.07 2446.84,-1098.03 2440.23,-1099.87 2433.44,-1101.57 2426.49,-1103.14 2419.41,-1104.57 2412.22,-1105.86 2404.95,-1106.99 2397.61,-1107.97 2390.23,-1108.78 2382.82,-1109.44 2375.42,-1109.93 2368.03,-1110.25 2360.67,-1110.41 2353.37,-1110.41 2346.14,-1110.24 2339.01,-1109.92 2331.97,-1109.43 2325.05,-1108.79 2318.27,-1108 2311.63,-1107.07 2305.15,-1105.99 2298.84,-1104.79 2292.72,-1103.45 2286.78,-1102 2281.05,-1100.43 2275.52,-1098.77 2270.22,-1097 2265.14,-1095.14 2260.3,-1093.21 2255.7,-1091.2 2251.35,-1089.14 2247.26,-1087.01 2243.43,-1084.84 2239.87,-1082.64 2236.58,-1080.4 2233.57,-1078.14 2230.84,-1075.87 2228.41,-1073.59 2226.27,-1071.31 2224.44,-1069.04 2222.91,-1066.77 2221.69,-1064.53 2220.79,-1062.32 2220.21,-1060.13 2219.95,-1057.97 2220.03,-1055.86 2220.43,-1053.78 2221.17,-1051.75 2222.25,-1049.77 2223.67,-1047.84 2225.43,-1045.96 2227.54,-1044.13 2229.99,-1042.37 2232.79,-1040.66 2235.93,-1039.01 2239.4,-1037.42 2243.22,-1035.89 2247.37,-1034.43 2251.85,-1033.02 2256.65,-1031.69 2261.77,-1030.41 2267.2,-1029.2 2272.92,-1028.06 2278.92,-1026.98 2285.2,-1025.97 2291.74,-1025.03 2298.51,-1024.16 2305.52,-1023.35 2312.74,-1022.63 2320.14,-1021.97 2327.72,-1021.39 2335.44,-1020.89 2343.29,-1020.47 2351.24,-1020.13 2359.27,-1019.88 2367.35,-1019.71 2375.45,-1019.64 2383.56,-1019.65 2391.64,-1019.76 2399.66,-1019.96 2407.6,-1020.27 2415.43,-1020.68 2423.13,-1021.19 2430.65,-1021.8 2437.99,-1022.53 2445.1,-1023.36 2451.97,-1024.3 2458.57,-1025.36 2464.87,-1026.52 2470.86,-1027.8 2476.5,-1029.19 2481.79,-1030.69 2486.69,-1032.29 2491.19,-1034.01 2495.28,-1035.82 2498.94,-1037.74 2502.16,-1039.75 2504.93,-1041.86 2507.23,-1044.05 2509.07,-1046.32 2510.43,-1048.67 2511.31,-1051.09 2511.72,-1053.56 2511.65,-1056.1 2511.1,-1058.67 2510.09,-1061.28 2508.62,-1063.92 2506.69,-1066.58 2504.31,-1069.24 2501.51,-1071.9 2498.28,-1074.55 2494.65,-1077.17 2490.63,-1079.76 2486.25,-1082.3 2481.51,-1084.79 2476.44,-1087.22"/>
<text text-anchor="middle" x="2359.12" y="-1057.89" font-family="sans-serif" font-size="16.00">PolicyProviderContext</text>
</g>
<!-- PolicyProviderContext&#45;&gt;PolicyExecutorContext -->
<g id="edge33" class="edge">
<title>PolicyProviderContext&#45;&gt;PolicyExecutorContext</title>
<path fill="none" stroke="black" stroke-width="2" d="M2458.37,-1024.83C2503.12,-1001.69 2546.12,-966.34 2546.12,-915.95 2546.12,-915.95 2546.12,-915.95 2546.12,-479.03 2546.12,-432 2507.72,-396.72 2467.97,-372.79"/>
<text text-anchor="middle" x="2606.62" y="-695.12" font-family="sans-serif" font-size="12.00"> &#160;&#160;&#160;&#160;&#160;&#160;&#160;&#160;&#160;&#160;&#160;&#160;&#160;&#160;&#160;&#160;&#160;&#160;&#160;&#160;&#160;&#160;&#160;&#160;&#160;&#160;&#160;&#160;&#160;&#160;&#160;&#160;&#160;&#160;&#160;&#160;&#160;&#160;&#160;</text>
<polygon fill="white" stroke="none" points="2444.97,-362.79 2444.97,-381.79 2460.97,-381.79 2460.97,-362.79 2444.97,-362.79"/>
<polyline fill="none" stroke="black" points="2460.97,-362.79 2460.97,-381.79"/>
<text text-anchor="start" x="2447.97" y="-369.19" font-family="sans-serif" font-size="12.00">D</text>
<polygon fill="white" stroke="none" points="2460.97,-362.79 2460.97,-381.79 2491.97,-381.79 2491.97,-362.79 2460.97,-362.79"/>
<polygon fill="none" stroke="black" points="2460.97,-362.79 2460.97,-381.79 2491.97,-381.79 2491.97,-362.79 2460.97,-362.79"/>
<text text-anchor="start" x="2463.97" y="-369.19" font-family="sans-serif" font-size="12.00">ACL</text>
<polygon fill="white" stroke="none" points="2434.37,-1014.83 2434.37,-1033.83 2450.37,-1033.83 2450.37,-1014.83 2434.37,-1014.83"/>
<polyline fill="none" stroke="black" points="2450.37,-1014.83 2450.37,-1033.83"/>
<text text-anchor="start" x="2437.37" y="-1021.23" font-family="sans-serif" font-size="12.00">U</text>
<polygon fill="white" stroke="none" points="2450.37,-1014.83 2450.37,-1033.83 2483.37,-1033.83 2483.37,-1014.83 2450.37,-1014.83"/>
<polygon fill="none" stroke="black" points="2450.37,-1014.83 2450.37,-1033.83 2483.37,-1033.83 2483.37,-1014.83 2450.37,-1014.83"/>
<text text-anchor="start" x="2453.37" y="-1021.23" font-family="sans-serif" font-size="12.00">OHS</text>
</g>
<!-- PolicyProviderContext&#45;&gt;CalculatorContext -->
<g id="edge32" class="edge">
<title>PolicyProviderContext&#45;&gt;CalculatorContext</title>
<path fill="none" stroke="black" stroke-width="2" d="M2309.98,-1022.66C2282.28,-1001.22 2247.82,-974.54 2220.27,-953.22"/>
<text text-anchor="middle" x="2331.62" y="-985.23" font-family="sans-serif" font-size="12.00"> &#160;&#160;&#160;&#160;&#160;&#160;&#160;&#160;&#160;&#160;&#160;&#160;&#160;&#160;&#160;&#160;&#160;&#160;&#160;&#160;&#160;&#160;&#160;&#160;&#160;&#160;&#160;&#160;&#160;&#160;&#160;&#160;&#160;&#160;&#160;&#160;&#160;&#160;&#160;</text>
<polygon fill="white" stroke="none" points="2213.27,-944.22 2213.27,-961.22 2227.27,-961.22 2227.27,-944.22 2213.27,-944.22"/>
<text text-anchor="start" x="2215.27" y="-949.62" font-family="sans-serif" font-size="12.00">D</text>
<polygon fill="white" stroke="none" points="2285.98,-1012.66 2285.98,-1031.66 2301.98,-1031.66 2301.98,-1012.66 2285.98,-1012.66"/>
<polyline fill="none" stroke="black" points="2301.98,-1012.66 2301.98,-1031.66"/>
<text text-anchor="start" x="2288.98" y="-1019.06" font-family="sans-serif" font-size="12.00">U</text>
<polygon fill="white" stroke="none" points="2301.98,-1012.66 2301.98,-1031.66 2334.98,-1031.66 2334.98,-1012.66 2301.98,-1012.66"/>
<polygon fill="none" stroke="black" points="2301.98,-1012.66 2301.98,-1031.66 2334.98,-1031.66 2334.98,-1012.66 2301.98,-1012.66"/>
<text text-anchor="start" x="2304.98" y="-1019.06" font-family="sans-serif" font-size="12.00">OHS</text>
</g>
<!-- RenewalContext -->
<g id="node24" class="node">
<title>RenewalContext</title>
<polygon fill="none" stroke="black" stroke-width="2" points="3078.38,-1038.71 3082.22,-1036.25 3086.31,-1033.87 3090.63,-1031.58 3095.16,-1029.38 3099.89,-1027.3 3104.8,-1025.33 3109.87,-1023.48 3115.1,-1021.77 3120.45,-1020.19 3125.92,-1018.76 3131.48,-1017.47 3137.12,-1016.35 3142.83,-1015.37 3148.58,-1014.57 3154.37,-1013.92 3160.17,-1013.44 3165.98,-1013.12 3171.77,-1012.97 3177.53,-1012.98 3183.26,-1013.16 3188.93,-1013.49 3194.53,-1013.99 3200.05,-1014.63 3205.49,-1015.42 3210.83,-1016.36 3216.05,-1017.43 3221.16,-1018.63 3226.13,-1019.95 3230.96,-1021.39 3235.65,-1022.94 3240.18,-1024.59 3244.55,-1026.33 3248.74,-1028.16 3252.76,-1030.06 3256.58,-1032.03 3260.22,-1034.06 3263.66,-1036.15 3266.89,-1038.27 3269.9,-1040.44 3272.7,-1042.62 3275.28,-1044.83 3277.63,-1047.06 3279.74,-1049.29 3281.61,-1051.51 3283.24,-1053.74 3284.61,-1055.95 3285.73,-1058.14 3286.59,-1060.31 3287.19,-1062.46 3287.52,-1064.57 3287.58,-1066.65 3287.36,-1068.69 3286.87,-1070.69 3286.09,-1072.65 3285.04,-1074.56 3283.7,-1076.42 3282.08,-1078.24 3280.17,-1080 3277.99,-1081.71 3275.52,-1083.37 3272.77,-1084.97 3269.74,-1086.52 3266.45,-1088.02 3262.88,-1089.46 3259.06,-1090.84 3254.97,-1092.16 3250.65,-1093.42 3246.08,-1094.62 3241.28,-1095.76 3236.27,-1096.84 3231.05,-1097.85 3225.64,-1098.8 3220.05,-1099.68 3214.3,-1100.49 3208.39,-1101.23 3202.36,-1101.89 3196.21,-1102.47 3189.96,-1102.98 3183.64,-1103.4 3177.26,-1103.74 3170.85,-1103.99 3164.41,-1104.15 3157.99,-1104.21 3151.58,-1104.17 3145.23,-1104.04 3138.94,-1103.8 3132.75,-1103.45 3126.66,-1103 3120.71,-1102.43 3114.92,-1101.75 3109.29,-1100.95 3103.87,-1100.04 3098.65,-1099.01 3093.67,-1097.86 3088.94,-1096.6 3084.48,-1095.22 3080.29,-1093.72 3076.41,-1092.1 3072.83,-1090.38 3069.58,-1088.54 3066.66,-1086.61 3064.08,-1084.56 3061.85,-1082.43 3059.98,-1080.2 3058.47,-1077.88 3057.33,-1075.49 3056.55,-1073.03 3056.14,-1070.5 3056.1,-1067.92 3056.43,-1065.3 3057.12,-1062.63 3058.16,-1059.94 3059.56,-1057.24 3061.3,-1054.52 3063.37,-1051.81 3065.77,-1049.12 3068.49,-1046.45 3071.5,-1043.82 3074.81,-1041.24 3078.38,-1038.71"/>
<text text-anchor="middle" x="3176.12" y="-1057.89" font-family="sans-serif" font-size="16.00">RenewalContext</text>
</g>
</g>
</svg>
